<svg xmlns="http://www.w3.org/2000/svg" viewBox="0 0 500 500"><g id="freepik--Door--inject-5"><g id="freepik--Light--inject-5"><path d="M470.68,366.47,224.92,302.88l-14.74,8.53-5.36-3.09V81.23L105,138.85V365.94h0v6.18l-13.83,8L79.55,422.75h0c35.05,29.54,85.49,52.82,151.87,57.8,84.57,6.34,157.34-18.82,195.93-52.29C446.27,411.85,460.67,390.54,470.68,366.47Z" style="fill:#003CFF"></path><path d="M470.68,366.47,224.92,302.88l-14.74,8.53-5.36-3.09V81.23L105,138.85V365.94h0v6.18l-13.83,8L79.55,422.75h0c35.05,29.54,85.49,52.82,151.87,57.8,84.57,6.34,157.34-18.82,195.93-52.29C446.27,411.85,460.67,390.54,470.68,366.47Z" style="fill:#fff;opacity:0.15"></path></g><g id="freepik--door--inject-5"><polygon points="91.19 380.1 105.02 372.12 105.02 138.85 210.18 78.14 210.18 311.41 224.93 302.88 224.93 51.08 91.19 128.3 91.19 380.1" style="fill:#455a64"></polygon><polygon points="210.18 311.41 204.82 308.32 204.82 81.23 210.18 78.14 210.18 311.41" style="fill:#37474f"></polygon><polygon points="91.19 380.1 85.84 377 85.83 125.21 91.19 128.3 91.19 380.1" style="fill:#37474f"></polygon><polygon points="224.93 51.08 219.57 47.99 85.83 125.21 91.19 128.3 224.93 51.08" style="fill:#37474f"></polygon></g></g><g id="freepik--Sign--inject-5"><g id="freepik--Exit--inject-5"><path d="M115.31,88.45l2.3,1.32L178,54.9V16.15l-2.3-1.32a4.77,4.77,0,0,0-4.29,0l-56.11,32.4a4.73,4.73,0,0,0-2.15,3.71V84.73A4.77,4.77,0,0,0,115.31,88.45Z" style="fill:#37474f"></path><path d="M119.76,88.53l56.1-32.39A4.75,4.75,0,0,0,178,52.42V18.63c0-1.37-1-1.92-2.15-1.24l-56.1,32.39a4.75,4.75,0,0,0-2.15,3.72V87.29C117.61,88.66,118.57,89.21,119.76,88.53Z" style="fill:#455a64"></path><path d="M135.94,67.12a.29.29,0,0,1,.39,0,.66.66,0,0,1,.17.51V71a1.68,1.68,0,0,1-.17.71,1.08,1.08,0,0,1-.39.48l-9.84,5.68a.31.31,0,0,1-.4,0,.7.7,0,0,1-.17-.51V56.72a1.64,1.64,0,0,1,.17-.7.94.94,0,0,1,.4-.48L135.77,50a.3.3,0,0,1,.4,0,.66.66,0,0,1,.16.51v3.39a1.62,1.62,0,0,1-.16.7,1,1,0,0,1-.4.48l-6.39,3.7v3.45l5.93-3.43a.3.3,0,0,1,.4,0,.68.68,0,0,1,.17.51v3.39a1.64,1.64,0,0,1-.17.7,1,1,0,0,1-.4.49l-5.93,3.42v3.59Z" style="fill:#003CFF"></path><path d="M144.78,60.63l-2.66,7.29a6,6,0,0,1-.27.68,1.41,1.41,0,0,1-.58.55L138.12,71a.23.23,0,0,1-.32,0,.54.54,0,0,1-.14-.42.86.86,0,0,1,0-.15l.05-.23,4.8-13.1-4.59-7.29a.91.91,0,0,1-.06-.32,1.31,1.31,0,0,1,.13-.57.9.9,0,0,1,.33-.4l3.13-1.81c.28-.16.48-.16.6,0a3.53,3.53,0,0,1,.27.32l2.52,3.95,2.43-6.8c.05-.14.14-.35.26-.64a1.46,1.46,0,0,1,.61-.67L151.32,41a.27.27,0,0,1,.33,0,.57.57,0,0,1,.13.42,1.61,1.61,0,0,1-.06.39l-4.61,12.73L151.86,62a.94.94,0,0,1,.06.18c0,.05,0,.09,0,.14a1.33,1.33,0,0,1-.14.57.86.86,0,0,1-.32.39l-3.16,1.83c-.27.16-.46.19-.57.1a1.27,1.27,0,0,1-.28-.35Z" style="fill:#003CFF"></path><path d="M154.21,61.68a.29.29,0,0,1-.39,0,.66.66,0,0,1-.17-.51V40.49a1.64,1.64,0,0,1,.17-.7,1.06,1.06,0,0,1,.39-.49l2.72-1.57a.32.32,0,0,1,.4,0,.69.69,0,0,1,.16.51V58.92a1.66,1.66,0,0,1-.16.71,1.16,1.16,0,0,1-.4.48Z" style="fill:#003CFF"></path><path d="M171.07,29.57a.3.3,0,0,1,.4,0,.66.66,0,0,1,.16.51V33.5a1.62,1.62,0,0,1-.16.7,1,1,0,0,1-.4.48l-3.65,2.11v16.4a1.68,1.68,0,0,1-.17.71,1.08,1.08,0,0,1-.39.48L164.14,56a.3.3,0,0,1-.4,0,.66.66,0,0,1-.16-.51V39l-3.66,2.11a.29.29,0,0,1-.39,0,.63.63,0,0,1-.17-.51V37.19a1.53,1.53,0,0,1,.17-.7,1,1,0,0,1,.39-.48Z" style="fill:#003CFF"></path></g></g><g id="freepik--Character--inject-5"><path id="freepik--Shadow--inject-5" d="M319.24,395.45c-22.75-5-35.14-15.13-35.14-15.13-8.88-1.13-15,8.28-7.14,19.4,5.47,7.72,39.54,48.73,59.42,72.35,38.17-9.53,69.74-25.41,91-43.81,2.95-2.56,5.78-5.26,8.51-8.05C394.86,412.29,319.24,395.45,319.24,395.45Z" style="opacity:0.2"></path><g id="freepik--character--inject-5"><g id="freepik--Bottom--inject-5"><path d="M324.89,365.9,311.5,391.77s-8.58-.16-12.17-4.55c-6.1-7.46-3.12-12.13-2.31-11.67,2.06,1.18,4.88,1.69,5.53-.4s1.52-4.83,2.43-8.08C306.16,362.86,324.89,365.9,324.89,365.9Z" style="fill:#ffa8a7"></path><path d="M278,371.67c-1.35,1.27-1.36,5.13-.4,8s3.64,6.29,7.72,8.78c3.82,2.33,7,3.36,8.85,5.46s3,6.21,8.57,7.68,7.33-1.59,8.38-3.41Z" style="fill:#37474f"></path><path d="M315.12,384.78l-.92,1.77c-2.82,2.9-8,2.05-9.77.35s-2.41-4-3.89-4.83-5.18-1.64-2.86-1.65,2.49,0,2.94-1.25a16.67,16.67,0,0,1,1.76-3.62c-1-.64-2.62,0-4.17-.55s-5.49-3.49-9.47-5.75a41.49,41.49,0,0,0-4.57-2.87c-2.81-1-6.18,1.79-6.73,4-.82,3.31-.78,6.42,2.45,11.42s11.42,7.78,13.76,9.59,2.18,3.37,6.26,6.74c4.51,3.71,10.33,1.79,11.83-.71,1.63-2.72,2.07-4.86,3.2-7.47S316.1,386.09,315.12,384.78Z" style="fill:#455a64"></path><path d="M293.43,381.35c.4-1.45,1.64-5.65,4.58-6.43l.44.16s.07-.42-.79-.78-2.19-.29-3.73,1.77a10.44,10.44,0,0,0-2,4.74C291.91,381.32,293,381.72,293.43,381.35Z" style="fill:#37474f"></path><path d="M288.89,378.93c.49-1.42,2.54-5.51,5.51-6.11l.42.22s0-.38-.82-.79-2.25-.28-3.9,1.68a13.18,13.18,0,0,0-2.67,4.37C287.38,378.81,288.4,379.27,288.89,378.93Z" style="fill:#37474f"></path><path d="M284.75,376.36c.54-1.4,2.74-5.61,5.74-6.08l.33.2s.09-.33-.73-.77-2-.77-3.72,1.13a15.41,15.41,0,0,0-3.05,4.83C283.25,376.18,284.24,376.68,284.75,376.36Z" style="fill:#37474f"></path><path d="M361.66,240.77c3.74,6.07,8.18,14.92,8.19,24.78,0,8.67-2.89,15.46-9.62,23.1-1.42,2.22-18.41,34.48-18.41,34.48a70.61,70.61,0,0,1-6.09,23.37c-5.28,11-16.91,31.37-16.91,31.37s-2.85,2.73-10-.42c-5.29-2.33-4.48-7.95-4.48-7.95s8.74-42.19,10.82-52,4.61-17.8,9.62-32.8c5.68-17,11.22-31.68,11.22-31.68Z" style="fill:#37474f"></path><path d="M310.71,376.66l-.95-.4c1.84-4.67,4.17-10,6.43-15.22,5.25-12.09,10.69-24.59,10.83-30.21.2-8.22,15.69-42.54,16.35-44l.93.45c-.16.36-16.06,35.58-16.25,43.57-.14,5.84-5.63,18.44-10.93,30.63C314.87,366.66,312.55,372,310.71,376.66Z" style="fill:#455a64"></path><path d="M303.29,371.64s-.24,4.66,5.53,7.22c6.77,3,10-.7,10-.7l3.29-6.11a15.23,15.23,0,0,1-9.42.64c-5.4-1.51-7.65-7.54-7.65-7.54Z" style="fill:#455a64"></path><path d="M341.81,323.29l-17.94-9.1s-4.28,19.72-9.18,37.95-7.05,26.69-9.65,31-2.76,6.56-7.66,5.45-16.57-5.75-19.77-8.95c1,2.87,3.64,6.29,7.72,8.78,3.82,2.33,7,3.36,8.85,5.46s3,6.21,8.57,7.68,7.33-1.59,8.38-3.41h0a3.9,3.9,0,0,0,.62-.76c1.63-2.72,2.07-4.86,3.2-7.47s1.16-3.87.18-5.18l-.92,1.77h0l4.11-7.94a3.38,3.38,0,0,0,.52-.46l3.29-6.11c3.84-6.85,10.12-18.24,13.62-25.55A70.55,70.55,0,0,0,341.81,323.29Z" style="opacity:0.2"></path><path d="M337.27,252.44l-1.27.61s-5.54,14.69-11.22,31.68c-5,15-7.54,23-9.62,32.8-1.69,7.94-7.75,37.19-10,48a2.41,2.41,0,0,1-.14-.33l-1.75,6.49a5.69,5.69,0,0,0,.07.89c-.29,1-.57,1.83-.81,2.62a2.1,2.1,0,0,1-.18.4c-1-.61-2.44-.05-3.92-.48,0,0,0-.43-.79-.77a2.12,2.12,0,0,0-1.06-.15c-.53-.31-1.13-.7-1.78-1.11h0s0-.38-.82-.79a1.94,1.94,0,0,0-.67-.18l-2.51-1.59s.09-.33-.73-.77a2.5,2.5,0,0,0-1.13-.33l-.22-.13a41.49,41.49,0,0,0-4.57-2.87c-2.81-1-6.18,1.79-6.73,4a11.63,11.63,0,0,0,0,6.23h0c-1-8,5.15-10.5,7.18-9s10.9,8.07,13.86,8.7c1.11.24,2-.05,3,.72,1.31.21,2,.06,3-3.35C306,368,311.57,343.05,314,330.2a280.28,280.28,0,0,1,8.4-32.87C324.33,291.57,333.11,265,337.27,252.44Z" style="fill:#fafafa;opacity:0.6000000000000001"></path><path d="M380,349.6s10.48,13.63,12.25,15.25a20.41,20.41,0,0,0,5.25,3l-9.17,16-21.79-19.19Z" style="fill:#ffa8a7"></path><path d="M313.82,258.11c.76,6.83,7.22,42.66,9.82,55,2.21,10.43,3.69,20.45,9.47,25.51,7.76,6.79,12.25,10.4,24.15,20,12.91,10.41,17.59,14.29,17.59,14.29.78-4.33,5.95-16.3,10.59-16.48-4.89-7.27-14.49-19.92-19.16-25.79a33.84,33.84,0,0,0-10.94-9.08l-1-34s6.55-9,6.66-19c.11-10.28-2.94-18.44-7.44-24Z" style="fill:#455a64"></path><path d="M350.67,276.94c-1.85,0-10.56-1.56-11.79-2.84-.75-.78-1.79-4.27-3.41-9.91-.77-2.65-1.56-5.39-2.3-7.63L333,256l19.55-6.3.18.46c.2.54,5,13.2,4.32,18.94-.26,2.15-4.59,7.61-6.18,7.79Zm-16.35-20.21c.69,2.16,1.42,4.7,2.13,7.16,1.2,4.14,2.55,8.83,3.16,9.45.87.9,9.88,2.69,11.15,2.53.88-.1,5-4.94,5.26-6.86.59-4.88-3.22-15.6-4.08-18Z" style="fill:#37474f"></path><path d="M374.35,367.62c-.17-.15-17-14.66-26.17-22.9l-2.34-2.09C338,335.6,334,332.07,332.57,326c-1.6-6.94-9.7-46.47-13.56-71l1-.17c3.85,24.48,11.94,64,13.55,70.89,1.33,5.78,5.21,9.24,12.93,16.12l2.35,2.09c9.19,8.23,26,22.74,26.15,22.89Z" style="fill:#37474f"></path><path d="M403.66,368c-4.33-1.11-7.45-1.79-8.77-2.7s-5,.72-7.43,4.87c-1.72,2.9-1.63,7-1.18,8s1.77,3.79,2,4.6a5,5,0,0,0-3.07-2.6c-.5-.11-.62,1.43-.14,2a14.81,14.81,0,0,1,3.51,5.74c1.35,3.67,1.8,5.65,2.36,11.27.48,4.88.94,10.68,7.26,12.95Z" style="fill:#455a64"></path><path d="M400.05,412.8c-2.87-.58-4.1-1.86-4.66-5.08s0-7.68.33-10.36a22.47,22.47,0,0,0-.67-8.45c-.79-3.41-1.6-8.6.69-13.35s5.48-7.95,7.92-7.54a3.66,3.66,0,0,1,2.36,1Z" style="fill:#37474f"></path><path d="M404.19,368.82a15,15,0,0,0-7.52,11.33c-.8,5.93,1.24,12,.84,17s-1.75,10.53,1,14.53,7.59-2.6,9.78-9.64-3.11-11.63-1.63-19.23S407.4,367.05,404.19,368.82Z"></path><path d="M369.24,368.51l6.28,5.09s2.39-6.51,6.25-10.08c4.49-4.15,6.63-3.24,6.63-3.24L384,354.13a12.36,12.36,0,0,0-9.43,4.49A27,27,0,0,0,369.24,368.51Z" style="fill:#37474f"></path></g><g id="freepik--Top--inject-5"><path d="M334.87,175.85a8.2,8.2,0,0,1-3.64-7.55c.38-2.92,2.87-10.17,1.76-18.08s-14.1-17.7-22.95-14.88-14.08,9-15.11,16.24c-.63,4.43,1.06,4.92,1,7.41-.16,4.9-.27,12.8,2.94,17.33a8.67,8.67,0,0,0,7.22,3.87,33.36,33.36,0,0,0,7.35-1.16,24.64,24.64,0,0,1,.91,4.17,7.84,7.84,0,0,1-1.67,5.11S337.09,177.05,334.87,175.85Z" style="fill:#ffa8a7"></path><path d="M307.05,159a1.48,1.48,0,1,0,1.63-1.38A1.52,1.52,0,0,0,307.05,159Z" style="fill:#263238"></path><path d="M307.31,153.24l3.56.57a1.9,1.9,0,0,0-1.54-2.12A1.77,1.77,0,0,0,307.31,153.24Z" style="fill:#263238"></path><path d="M295,156l3-2a1.74,1.74,0,0,0-2.46-.58A1.92,1.92,0,0,0,295,156Z" style="fill:#263238"></path><path d="M296.66,160.12a1.36,1.36,0,1,0,1-1.67A1.4,1.4,0,0,0,296.66,160.12Z" style="fill:#263238"></path><path d="M297.36,166.36l5.5,1.76.49-10.47C301.33,157.17,299.33,162.17,297.36,166.36Z" style="fill:#f28f8f"></path><path d="M310,170.63a1.42,1.42,0,1,1-1.42-1.41A1.42,1.42,0,0,1,310,170.63Z" style="fill:#b16668"></path><path d="M313.43,179s3.47-1.13,4.69-2.21c3.31-2.93,3.5-5.35,3.85-7.87,0,2.8.45,6.59-2.88,9.24a19,19,0,0,1-5.18,2.63Z" style="fill:#f28f8f"></path><path d="M322.52,164.28c.24,1.46,1.29,4.17,3,4.94a7.69,7.69,0,0,0,5.67,0c.2-1.41,1-5.08,1.8-8.24s2.5-13.56-2.41-17.43c.42-4.66-3.11-7.43-7.51-9.33-3.7-1.6-10.21-1.25-15.16.63-11.69,4.42-14.45.76-16,2s.53,5.13,2.15,6.07c-2,0-3.16,1.27-1.71,3.41s4.38,3.2,8.83,3c7.79-.39,11.36-3.34,13.07-4.53a24.58,24.58,0,0,0-.56,5.6,5.63,5.63,0,0,0,2.29,4.23c1.11.68.28,3.29.68,4.23s2,2.61,3-1.49,4.89-5,6.85-3.47,2.3,3.48,1.49,7.14C327.37,163.87,324.57,165.56,322.52,164.28Z" style="fill:#263238"></path><path d="M387.73,224.29s10.62,9.82,11.49,10.82c.64.73,3.81,3.48,3,4.86-.25.43-1,.43-1.39,1.23a10.62,10.62,0,0,0-.64,4.48,1.92,1.92,0,0,0,2,1.49,2.09,2.09,0,0,0,2.29,1.55,2.5,2.5,0,0,0,.91,1.55,3.17,3.17,0,0,0,1.94.55c.41.94,2.07,1.13,3.57.49a14,14,0,0,0,3.86-2.89,3.53,3.53,0,0,0,1-2.44,44.78,44.78,0,0,0-.31-5.36c-.28-2.66-1.57-5.17-3-8.25-1.87-3.85-13.58-17.73-13.58-17.73Z" style="fill:#ffa8a7"></path><path d="M407.34,250.82c-.43-1.26-1-3.79-.6-4.59a15.51,15.51,0,0,1,2.83-2.95c.3-.2.93.16,1.19.93s-.3,1.92-.63,2.59l.27,1a3,3,0,0,0-.34,1.69c.24-1.48,2.23-2.89,3-2.72a3,3,0,0,0-1.83-.14l-.3-.76s.67-1.87-.13-2.68-1.06-1-2,0-2.36,2.38-2.56,3.15S407.34,250.82,407.34,250.82Z" style="fill:#f28f8f"></path><path d="M411.32,239c-1.46,1.85-.4,4.73-.4,4.73A3.17,3.17,0,0,1,411.32,239Z" style="fill:#f28f8f"></path><path d="M404.49,248.72a5.41,5.41,0,0,1-.48-3,1.9,1.9,0,0,1,.33-.74l.45-.61c.31-.4.63-.78.95-1.16l1-1.12a4.86,4.86,0,0,1,1.16-1,1.46,1.46,0,0,1,.83-.16.91.91,0,0,1,.69.47,2.82,2.82,0,0,1,.28,1.49,3.16,3.16,0,0,0-.48-1.35.78.78,0,0,0-1.13-.1,6,6,0,0,0-1,1l-1,1.12-1,1.13a3.76,3.76,0,0,0-.78,1.16A6.88,6.88,0,0,0,404.49,248.72Z" style="fill:#f28f8f"></path><path d="M402.2,247.17a8.17,8.17,0,0,1-.49-3,2.34,2.34,0,0,1,.72-1.45c.36-.36.74-.69,1.12-1l1.16-1,.6-.46.3-.23a1.49,1.49,0,0,1,.39-.22.84.84,0,0,1,.85.33,1.45,1.45,0,0,1,.31.76,2.47,2.47,0,0,1-.36,1.49,2.68,2.68,0,0,0,.11-1.45c-.07-.44-.49-.87-.79-.76a1.26,1.26,0,0,0-.24.19l-.28.24-.57.49-1.14,1c-.39.32-.76.65-1.13,1a2,2,0,0,0-.66,1.16A12.27,12.27,0,0,0,402.2,247.17Z" style="fill:#f28f8f"></path><path d="M405.18,240.66a2.38,2.38,0,0,0,0-1.4.72.72,0,0,0-.36-.46.61.61,0,0,0-.54.1,27.62,27.62,0,0,0-2.37,1.63,5.19,5.19,0,0,0-1,1,3.42,3.42,0,0,0-.38,1.29c-.15.95-.23,1.93-.36,2.9a19.24,19.24,0,0,1-.05-2.94,3.39,3.39,0,0,1,.37-1.51,4.87,4.87,0,0,1,1.07-1.1,16.8,16.8,0,0,1,2.51-1.58,1,1,0,0,1,.86,0,1,1,0,0,1,.46.69A2.22,2.22,0,0,1,405.18,240.66Z" style="fill:#f28f8f"></path><path d="M400.32,236.23c1.12,1.28.2,2.68-.12,4.21s-.45,2.11.25,3.13,2.76,3.06,3.22,3.6,2.21-.83,1.19-3.24c-.42-1-1.79-2-2.08-3.36A6.38,6.38,0,0,0,400.32,236.23Z" style="fill:#ffa8a7"></path><path d="M400.2,240.44a6.47,6.47,0,0,0-.11,2,3.72,3.72,0,0,0,1,1.65c.89,1,1.9,2,2.78,2.92,0,.07.38,0,.56-.26a1.85,1.85,0,0,0,.42-.78,3.17,3.17,0,0,0-.15-1.87,7.25,7.25,0,0,0-1.07-1.67,4.52,4.52,0,0,1-.86-1.86c.4,1.35,1.66,2.06,2.3,3.38a3.4,3.4,0,0,1,.24,2.14,2.35,2.35,0,0,1-.52,1,1.54,1.54,0,0,1-.49.37.73.73,0,0,1-.74,0c-1-1.06-1.9-2-2.77-3.07a4,4,0,0,1-1-1.87A5.76,5.76,0,0,1,400.2,240.44Z" style="fill:#f28f8f"></path><path d="M345.12,174.64c7.48-1.3,11,2.26,16.62,6.49s21.79,17.69,25.16,20.21,4.15,3.41,8.34,8.46,5,6.26,5,6.26-3.58,8.34-11.88,9.31L378.89,217l-25.17-11.19Z" style="fill:#f0f0f0"></path><path d="M345.12,174.64c-8.28,0-20.85,4.74-31.43,12.9-5,3.85-11.51,8-11.94,8.94-.68,3.81,1,8.8,1.77,14.48,2,14.48,4.67,23.78,6.76,33,3.1,13.71,3.74,15.72,3.74,15.72s27.88.33,38.82-7.76,9.08-12.31,8.2-16.85a128.67,128.67,0,0,1-3-29C358.34,192.54,355.17,174.64,345.12,174.64Z" style="fill:#fafafa"></path><path d="M311.35,189.29c3.34-4.56,2.06-4.5,4.27-7.25,2.75-3.42,16.37-9.52,17.78-8.58a11.83,11.83,0,0,0,5.15,2s-.22,2.38-8.55,6.32C322.05,185.52,318.69,185.92,311.35,189.29Z" style="fill:#f0f0f0"></path><path d="M276.53,233.46s-14.56-6.67-15.71-7.33c-1.89-1.08-2.1-1.64-2-3.16s.43-2.94-.4-4.53-2.1-3.29-3.09-3.49a6.55,6.55,0,0,0-2.11,0,9.84,9.84,0,0,0-2.49-2.1,6.92,6.92,0,0,0-4.25.26c-1,.46-.74,1.39-1.34,2.54-.27.53-1.09.83-1.37,1.41s-.12,1.3-.3,2a18.17,18.17,0,0,0-.9,3.72c0,2.17,3.61,7.28,6.64,10.31S269,245.73,269,245.73Z" style="fill:#ffa8a7"></path><path d="M253.19,215c.65,1,1.34,1.4,1.43,2.26a1.49,1.49,0,0,1-.71,1.34,3.57,3.57,0,0,0-2.53-1.8,4.32,4.32,0,0,1,2,2.53,1.59,1.59,0,0,1,1.59.52,1.69,1.69,0,0,0,.82-1,2.33,2.33,0,0,0-.68-2.27C254.5,216,253.19,215,253.19,215Z" style="fill:#f28f8f"></path><path d="M302.22,195.94c3.85,0,12.11,9.93,7.78,25,0,0-13.6,19.36-18.53,25.09-3,3.5-5.85,7.75-12.15,5.29a77.2,77.2,0,0,1-14.88-8s-1.47-8.39,4.62-13.45l7.78,3.09s5.69-9.12,11.61-18.71C295.31,203.13,295.44,201.06,302.22,195.94Z" style="fill:#f0f0f0"></path><path d="M276.84,233c-.34,3.44.25,7.69,2.29,10.52-2.58-1.39-4.76-5.38-4.15-11.15Z" style="fill:#e0e0e0"></path></g><path id="freepik--shadow--inject-5" d="M415.5,240.62c-.28-2.66-1.57-5.17-3-8.25s-9.27-12.56-12.33-16.24l0-.07s-.74-1.16-5-6.26-5-5.94-8.34-8.46-19.56-16-25.16-20.21-9.14-7.79-16.62-6.49a31.29,31.29,0,0,0-6.57.8h0a11.83,11.83,0,0,1-5.15-2,1.47,1.47,0,0,0-.92-.06,8.59,8.59,0,0,1-1.28-4.28c.22-1.46,1-5,1.79-8.14.86-3.27,2.5-13.56-2.41-17.43.36-4-2.16-6.57-5.64-8.43-4.16-1.58-11.87.37-16.92,3s-5.13,11-5.13,11a33.67,33.67,0,0,0,5.13-1.07c1,1,2.53,3.94.5,4.35a4.68,4.68,0,0,0-3.58,3.67c-.25,1.48,2.43,1.19,4.16,1.83s4.1,2.35,3.57,4.07-2.09,4.41.37,6.13,7,5.5,2.88,9.95c0,0,1.71-.45,3.86-3l1.39,3a13.43,13.43,0,0,0-3,4.88c-.74,2.6-1.32,4-1.32,4s1.56,3.56-4.62,7.81-8.46,4.26-12.14,11-13,25.12-16.19,31.5-3.44,9.54-9,8.2-16.49-6.12-16.56-6.16c2.12,1.32,4.27,2.62,6.08,3.69,0,.15,0,.26,0,.26a77.2,77.2,0,0,0,14.88,8c6.3,2.46,9.14-1.79,12.15-5.29,3.26-3.8,10.33-13.56,14.73-19.73v.07l.13-.26,3.13-4.41s3.81,14.51,5.86,21.84,12.35,62.52,13,67.64,6.86,18.3,8.75,19.36,5.45-3.62,13.24-1.11,16.67,17.39,21.14,23.85,15.44,19.23,17.81,21.27,2.59,6.22,3.34,10.55,2.3,5.62,2.14,10.25-1.25,14.16,5.3,17.42h0c2.79.69,6.45-4.89,8.28-10.79,2.18-7-3.11-11.63-1.63-19.23,1.13-5.86.93-12-.69-13.71v0a3.66,3.66,0,0,0-2.36-1c-4.33-1.11-7.45-1.79-8.77-2.7a2.38,2.38,0,0,0-2.08,0c-.19-.15-.37-.3-.53-.45-.59-.53-2.1-2.36-3.88-4.57L384,354.13h-.17c-5.16-7.4-13.36-18.2-17.58-23.5a33.84,33.84,0,0,0-10.94-9.08l-.66-22.7c2.79-5.24,5.07-9.45,5.55-10.2,6.73-7.64,9.63-14.43,9.62-23.1,0-9.85-4.45-18.71-8.18-24.77a17.44,17.44,0,0,0-.63-5.72,131.12,131.12,0,0,1-3-27.29h0v-6.34s18.54,9.26,21.91,11.21,7.71,6.05,11,9.89,11.48,11.11,11.87,13.16-2,4.07-.71,6.46,3.14,2.87,2.73,4.55c0,0,.4,1.65,1.76,1.46,0,0,1.29,2.84,4.11,1.94s4.88-2.77,5.11-5.85C415.74,243.3,415.66,242.16,415.5,240.62Z" style="opacity:0.2"></path><g id="freepik--Lights--inject-5"><path d="M293.52,147.16c-1.29-1.29-2.14-3.37-.23-4.21-1.47.31-2.17,1.51-.93,3.34a6.29,6.29,0,0,0,3.19,2.33A6.57,6.57,0,0,1,293.52,147.16Z" style="fill:#fafafa;opacity:0.6000000000000001"></path><path d="M293.62,142.55a7.8,7.8,0,0,1-1.77-3.69,1.67,1.67,0,0,1,1.78-2.2c-.77-.14-1.29-.18-1.71.15C290.52,137.9,292.1,141.24,293.62,142.55Z" style="fill:#fafafa;opacity:0.6000000000000001"></path><path d="M301.06,159.13a52.32,52.32,0,0,0-3.7,7.23l5.5,1.76L298.33,166S300.45,160.06,301.06,159.13Z" style="fill:#fafafa;opacity:0.6000000000000001"></path><path d="M312.67,179.22a30,30,0,0,1-6.06.61c-2-.18-5-.28-7.75-4.49s-3-11.79-3-14.1c-.06,4.82.24,11.19,3,15.08a8.67,8.67,0,0,0,7.22,3.87A29.13,29.13,0,0,0,312.67,179.22Z" style="fill:#fafafa;opacity:0.6000000000000001"></path><path d="M244.59,216.82a2.66,2.66,0,0,0,1.46-2.23c.11-1.52,1.18-1.75,2.76-2a6.11,6.11,0,0,0-2.36.48c-1,.46-.74,1.39-1.34,2.54-.27.53-1.09.83-1.37,1.41s-.12,1.3-.3,2a18.17,18.17,0,0,0-.9,3.72c0,1.56,1.86,4.64,4,7.37-2.23-3.24-3.79-7.12-3.63-8.09s1.2-2.23,1.09-3.37S244.1,217.26,244.59,216.82Z" style="fill:#fafafa;opacity:0.6000000000000001"></path><path d="M255.41,215.39c1,.21,2.52,2.26,2.57,2.32-.81-1.37-1.84-2.59-2.68-2.76a6.55,6.55,0,0,0-2.11,0l.56.44A3.45,3.45,0,0,1,255.41,215.39Z" style="fill:#fafafa;opacity:0.6000000000000001"></path><path d="M391,393.78c-.61-6.1-2.81-8.78-4.45-10.59s-1.34-2.17-1.34-3a72.87,72.87,0,0,0-7.05-6.6c-5.81-5-23.6-18.63-36.25-29.54-5.09-4.39-8-6.16-9.84-9.05-2.11-3.26-3.92-8.65-5-13.26-1.79-7.71-11.28-62.09-11.28-62.09H314c1.33,9.55,7.18,41.85,9.62,53.44,2.21,10.43,3.69,20.45,9.47,25.51,7.76,6.79,12.25,10.4,24.15,20,5.34,4.3,9.25,7.48,12,9.74l-.05.16,6.28,5.09s.11-.3.32-.79l8.92,7.86a2.14,2.14,0,0,0,.26,1.56,14.81,14.81,0,0,1,3.51,5.74c1.35,3.67,1.8,5.65,2.36,11.27.38,3.87.76,8.31,4.05,11.12C391.14,406.7,391.55,399.84,391,393.78Z" style="fill:#fafafa;opacity:0.6000000000000001"></path><path d="M403.67,247.17a11.82,11.82,0,0,0-1.9-2.67,4.42,4.42,0,0,1-1-4.53,6.77,6.77,0,0,0,.31-3.74c-.19-.88-11.39-11.09-11.39-11.09l-.87.15c2.72,2.52,9.72,9,10.41,9.82.2.22.62.63,1.1,1.12,1.11,1.28.2,2.68-.12,4.21-.26.95-.67,1.78-.08,2.9a12.38,12.38,0,0,0,.08,2.34,1.92,1.92,0,0,0,2,1.49,2,2,0,0,0,1.88,1.54,3.11,3.11,0,0,1-2-2s-.43,0-1-.93a2.75,2.75,0,0,1-.41-1.9Z" style="fill:#fafafa;opacity:0.6000000000000001"></path></g></g></g><g id="freepik--Symbols--inject-5"><g id="freepik--Exclamation--inject-5"><path d="M274,135.69a.8.8,0,0,1-.12-.61.75.75,0,0,1,.34-.52l3.14-2.14a.75.75,0,0,1,.6-.13.8.8,0,0,1,.53.34l1.72,2.51a.82.82,0,0,1,.12.61.77.77,0,0,1-.34.53l-3.14,2.14a.76.76,0,0,1-.61.12.79.79,0,0,1-.52-.33Zm-9.27-13.57a.77.77,0,0,1-.12-.61.75.75,0,0,1,.33-.52l3.14-2.15a.81.81,0,0,1,.61-.12.77.77,0,0,1,.52.33l7.34,10.74a.8.8,0,0,1,.12.61.75.75,0,0,1-.34.52l-3.13,2.14a.78.78,0,0,1-.61.13.8.8,0,0,1-.53-.34Z" style="fill:#003CFF"></path><path d="M273.23,149.64a.81.81,0,0,1-.4-1.07l1.59-3.46a.77.77,0,0,1,.46-.42.79.79,0,0,1,.62,0l2.77,1.28a.77.77,0,0,1,.42.46.79.79,0,0,1,0,.62l-1.58,3.45a.83.83,0,0,1-.46.42.78.78,0,0,1-.62,0Zm-14.94-6.87a.72.72,0,0,1-.41-.46.75.75,0,0,1,0-.62l1.58-3.45a.83.83,0,0,1,.46-.42.78.78,0,0,1,.62,0l11.81,5.44a.72.72,0,0,1,.42.45.77.77,0,0,1,0,.63l-1.59,3.45a.78.78,0,0,1-.45.42.81.81,0,0,1-.63,0Z" style="fill:#003CFF"></path></g></g></svg>