<svg class="animated" id="freepik_stories-paralympic-football-5-a-side" xmlns="http://www.w3.org/2000/svg" viewBox="0 0 500 500" version="1.1" xmlns:xlink="http://www.w3.org/1999/xlink" xmlns:svgjs="http://svgjs.com/svgjs"><style>svg#freepik_stories-paralympic-football-5-a-side:not(.animated) .animable {opacity: 0;}svg#freepik_stories-paralympic-football-5-a-side.animated #freepik--background-simple--inject-10 {animation: 1.5s Infinite  linear wind;animation-delay: 0s;}svg#freepik_stories-paralympic-football-5-a-side.animated #freepik--Character_3--inject-10 {animation: 3s Infinite  linear wind;animation-delay: 0s;}svg#freepik_stories-paralympic-football-5-a-side.animated #freepik--Character_2--inject-10 {animation: 3s Infinite  linear wind;animation-delay: 1.5s;}svg#freepik_stories-paralympic-football-5-a-side.animated #freepik--Character_1--inject-10 {animation: 3s Infinite  linear wind;animation-delay: 2s;}            @keyframes wind {                0% {                    transform: rotate( 0deg );                }                25% {                    transform: rotate( 1deg );                }                75% {                    transform: rotate( -1deg );                }            }        </style><g id="freepik--background-simple--inject-10" class="animable" style="transform-origin: 245.714px 253.817px;"><g id="el4b21hkrstkq" class="animable" style="transform-origin: 245.714px 253.817px;"><path d="M443.78639,116.2174c-3.2271-5.2293-6.7941-10.306-10.7447-15.2037-31.7958-39.421-73.3673-56.0963-120.8629-67.2735-49.0529-11.5433-106.4861-15.1759-153.57779,5.6938-11.0853,4.9128-21.5944,11.4924-29.9583,20.4062-31.5032,33.5747-42.3044,89.8351-77.4081,134.2989C16.131,238.6027-.97081,293.9554,30.5324,346.5861c13.3321,22.273,30.331,40.6482,50.4456,56.7695,24.7664,19.8496,46.1282,46.6225,74.7482,62.1183,30.0812,16.287,70.1433,21.9614,103.4315,14.5033,37.9796-8.5093,60.2562-42.3431,89.2489-65.4187,22.8562-18.1915,50.1966-30.0976,72.5936-48.8606,34.3132-28.7453,60.3276-74.9493,55.9786-120.7448-4.2187-44.4231-9.6824-90.638-33.1924-128.7357Z" style="fill: rgb(0, 165, 255); transform-origin: 245.714px 253.817px;" id="elqmss07ex0qh" class="animable"></path><g id="elbnzoaub9c06"><path d="M443.78639,116.2174c-3.2271-5.2293-6.7941-10.306-10.7447-15.2037-31.7958-39.421-73.3673-56.0963-120.8629-67.2735-49.0529-11.5433-106.4861-15.1759-153.57779,5.6938-11.0853,4.9128-21.5944,11.4924-29.9583,20.4062-31.5032,33.5747-42.3044,89.8351-77.4081,134.2989C16.131,238.6027-.97081,293.9554,30.5324,346.5861c13.3321,22.273,30.331,40.6482,50.4456,56.7695,24.7664,19.8496,46.1282,46.6225,74.7482,62.1183,30.0812,16.287,70.1433,21.9614,103.4315,14.5033,37.9796-8.5093,60.2562-42.3431,89.2489-65.4187,22.8562-18.1915,50.1966-30.0976,72.5936-48.8606,34.3132-28.7453,60.3276-74.9493,55.9786-120.7448-4.2187-44.4231-9.6824-90.638-33.1924-128.7357Z" style="fill: rgb(255, 255, 255); opacity: 0.7; transform-origin: 245.714px 253.817px;" class="animable"></path></g></g></g><g id="freepik--Clouds--inject-10" class="animable" style="transform-origin: 273.074px 84.1414px;"><path d="M431.43009,63.0572c-3.3567-3.7268-10.4708-9.6815-21.1369-8.8282-15.3737,1.2299-15.3737,20.2933-25.2129,24.5979-9.8392,4.3047-20.29329-3.6897-27.6727-3.0747-7.3794,.6149-9.2243,7.3794-12.9139,9.8392-3.68969,2.4598-13.5289-3.0748-18.4485-2.4598-4.9196,.6149-5.5346,3.6897-10.4541,4.9196-4.9196,1.2299-7.9944-1.8449-11.68409-.615-3.68971,1.2299-8.60931,4.9196-8.60931,4.9196h188.7894s-6.7645-19.6784-18.4485-21.5232c-11.684-1.8449-18.4485,6.7644-20.2933,6.1495-1.8449-.615-11.684-11.0691-11.684-11.0691" style="fill: none; stroke: rgb(38, 50, 56); stroke-miterlimit: 10; transform-origin: 389.692px 73.2511px;" id="elhi2p43ph1rl" class="animable"></path><path d="M126.1071,37.9263s-3.7004-5.9776-10.8166-5.4083c-7.1163,.5693-7.1163,9.3934-11.6707,11.386-4.5543,1.9925-9.3934-1.7079-12.8092-1.4233-3.4158,.2847-4.2697,3.4158-5.9776,4.5544s-6.2623-1.4232-8.5395-1.1386c-2.2772,.2847-2.5618,1.7079-4.839,2.2772s-3.7005-.854-5.4084-.2847-3.985,2.2772-3.985,2.2772h87.3873s-3.1312-9.1087-8.5395-9.9627c-5.4083-.8539-8.5395,3.1312-9.3934,2.8465-.854-.2846-5.4084-5.1237-5.4084-5.1237Z" style="fill: none; stroke: rgb(38, 50, 56); stroke-miterlimit: 10; transform-origin: 105.755px 41.323px;" id="el63y4ibd4x67" class="animable"></path><path d="M233.28989,123.5632s-3.7004-5.9776-10.8167-5.4083c-7.11619,.5693-7.11619,9.3934-11.6706,11.386-4.5544,1.9925-9.3934-1.7079-12.8092-1.4233-3.4158,.2847-4.2697,3.4158-5.9776,4.5544s-6.2623-1.4233-8.5395-1.1386c-2.2772,.2846-2.5619,1.7079-4.8391,2.2772-2.2771,.5693-3.7004-.854-5.4083-.2847-1.7079,.5693-3.9851,2.2772-3.9851,2.2772h87.3873s-3.13109-9.1087-8.5394-9.9627c-5.4084-.8539-8.5395,3.1312-9.3935,2.8465-.8539-.2846-5.4083-5.1237-5.4083-5.1237Z" style="fill: none; stroke: rgb(38, 50, 56); stroke-miterlimit: 10; transform-origin: 212.937px 126.96px;" id="eli9n2gk9pqqq" class="animable"></path></g><g id="freepik--Grass--inject-10" class="animable" style="transform-origin: 235.844px 413.322px;"><path d="M28.7108,343.4308c.5903,1.0527,1.1928,2.1047,1.8216,3.1553,13.3321,22.273,30.331,40.6482,50.4456,56.7695,24.7664,19.8496,46.1282,46.6225,74.7482,62.1183,30.0812,16.287,70.1433,21.9614,103.4315,14.5033,37.9796-8.5093,60.2562-42.3431,89.2489-65.4187,22.8562-18.1915,50.1966-30.0976,72.5936-48.8606,7.85081-6.5769,15.2586-14.0763,21.9763-22.2671H28.7108Z" style="fill: rgb(0, 165, 255); transform-origin: 235.844px 413.322px;" id="el5rb44pppazf" class="animable"></path></g><g id="freepik--Floor--inject-10" class="animable" style="transform-origin: 250.881px 343.81px;"><g id="el9m3t3j1vdl" class="animable" style="transform-origin: 250.881px 343.81px;"><line x1="470.96279" y1="343.8099" x2="483.38759" y2="343.8099" style="fill: none; stroke: rgb(38, 50, 56); stroke-miterlimit: 10; transform-origin: 477.175px 343.81px;" id="el9rl5rb2nivn" class="animable"></line><line x1="18.375" y1="343.8099" x2="463.88159" y2="343.8099" style="fill: none; stroke: rgb(38, 50, 56); stroke-miterlimit: 10; transform-origin: 241.128px 343.81px;" id="el40kuyiwf54c" class="animable"></line></g></g><g id="freepik--Goal--inject-10" class="animable" style="transform-origin: 256.263px 263.61px;"><g id="ell065h5btd1e" class="animable" style="transform-origin: 256.263px 263.61px;"><g id="elh26ukf4gv8d" class="animable" style="transform-origin: 255.538px 263.259px;"><g id="elvhvvvg386tq" class="animable" style="transform-origin: 253.394px 263.259px;"><path d="M84.2046,333.9031c-.9383-48.9559-.9383-98.3961,0-147.5144" style="fill: none; stroke: rgb(204, 204, 204); stroke-miterlimit: 10; transform-origin: 83.8527px 260.146px;" id="elplf42troh8" class="animable"></path><path d="M97.2462,333.9031c-.4962-48.9559-.4962-98.3961,0-147.5144" style="fill: none; stroke: rgb(204, 204, 204); stroke-miterlimit: 10; transform-origin: 97.0601px 260.146px;" id="elvt9ylc2kv7" class="animable"></path><path d="M110.2876,333.9031c-.0539-48.9559-.0539-98.3961,0-147.5144" style="fill: none; stroke: rgb(204, 204, 204); stroke-miterlimit: 10; transform-origin: 110.267px 260.146px;" id="elvmwxbp8hryr" class="animable"></path><path d="M123.3293,333.9031c.3881-48.9559,.3881-98.3961,0-147.5144" style="fill: none; stroke: rgb(204, 204, 204); stroke-miterlimit: 10; transform-origin: 123.475px 260.146px;" id="elu6ljvlyjiu" class="animable"></path><path d="M136.3709,333.9031c.83-48.9559,.83-98.3961,0-147.5144" style="fill: none; stroke: rgb(204, 204, 204); stroke-miterlimit: 10; transform-origin: 136.682px 260.146px;" id="elquo2ihs2v8n" class="animable"></path><path d="M149.4125,333.9031c-.9752-48.9559-.9752-98.3961,0-147.5144" style="fill: none; stroke: rgb(204, 204, 204); stroke-miterlimit: 10; transform-origin: 149.047px 260.146px;" id="elpicwd2qzefm" class="animable"></path><path d="M162.4541,333.9031c-.5331-48.9559-.5331-98.3961,0-147.5144" style="fill: none; stroke: rgb(204, 204, 204); stroke-miterlimit: 10; transform-origin: 162.254px 260.146px;" id="elxfywgfcr26g" class="animable"></path><path d="M175.4957,333.9031c-.091-48.9559-.091-98.3961,0-147.5144" style="fill: none; stroke: rgb(204, 204, 204); stroke-miterlimit: 10; transform-origin: 175.462px 260.146px;" id="el5vuv5zv4asm" class="animable"></path><path d="M188.5373,333.9031c.3511-48.9559,.3511-98.3961,0-147.5144" style="fill: none; stroke: rgb(204, 204, 204); stroke-miterlimit: 10; transform-origin: 188.669px 260.146px;" id="elp9h93s9bly" class="animable"></path><path d="M201.57889,333.9031c.79311-48.9559,.79311-98.3961,0-147.5144" style="fill: none; stroke: rgb(204, 204, 204); stroke-miterlimit: 10; transform-origin: 201.876px 260.146px;" id="el3pxbnv84tl5" class="animable"></path><path d="M214.62049,333.9031c-1.0121-48.9559-1.0121-98.3961,0-147.5144" style="fill: none; stroke: rgb(204, 204, 204); stroke-miterlimit: 10; transform-origin: 214.241px 260.146px;" id="elobt7ehb1z1" class="animable"></path><path d="M227.66219,333.9031c-.5701-48.9559-.5701-98.3961,0-147.5144" style="fill: none; stroke: rgb(204, 204, 204); stroke-miterlimit: 10; transform-origin: 227.448px 260.146px;" id="elmgt6oz85xcd" class="animable"></path><path d="M240.70379,333.9031c-.128-48.9559-.128-98.3961,0-147.5144" style="fill: none; stroke: rgb(204, 204, 204); stroke-miterlimit: 10; transform-origin: 240.656px 260.146px;" id="elqkp0xvavc" class="animable"></path><path d="M253.74539,333.9031c.3139-48.9559,.3139-98.3961,0-147.5144" style="fill: none; stroke: rgb(204, 204, 204); stroke-miterlimit: 10; transform-origin: 253.863px 260.146px;" id="elxsxil5ovhek" class="animable"></path><path d="M266.787,333.9031c.756-48.9559,.756-98.3961,0-147.5144" style="fill: none; stroke: rgb(204, 204, 204); stroke-miterlimit: 10; transform-origin: 267.07px 260.146px;" id="elqhhobzipeca" class="animable"></path><path d="M279.82859,333.9031c-1.0492-48.9559-1.0492-98.3961,0-147.5144" style="fill: none; stroke: rgb(204, 204, 204); stroke-miterlimit: 10; transform-origin: 279.435px 260.146px;" id="elaq5v9kik4pv" class="animable"></path><path d="M292.87019,333.9031c-.6071-48.9559-.6071-98.3961,0-147.5144" style="fill: none; stroke: rgb(204, 204, 204); stroke-miterlimit: 10; transform-origin: 292.643px 260.146px;" id="eld4q9jczkh9c" class="animable"></path><path d="M305.91179,333.9031c-.1651-48.9559-.1651-98.3961,0-147.5144" style="fill: none; stroke: rgb(204, 204, 204); stroke-miterlimit: 10; transform-origin: 305.85px 260.146px;" id="elbid1jajij6" class="animable"></path><path d="M318.95339,333.9031c.277-48.9559,.277-98.3961,0-147.5144" style="fill: none; stroke: rgb(204, 204, 204); stroke-miterlimit: 10; transform-origin: 319.057px 260.146px;" id="elne2qtj4d19" class="animable"></path><path d="M331.99509,333.9031c.719-48.9559,.719-98.3961,0-147.5144" style="fill: none; stroke: rgb(204, 204, 204); stroke-miterlimit: 10; transform-origin: 332.265px 260.146px;" id="el2vttjnx95dl" class="animable"></path><path d="M345.03649,333.9031c-1.086-48.9559-1.086-98.3961,0-147.5144" style="fill: none; stroke: rgb(204, 204, 204); stroke-miterlimit: 10; transform-origin: 344.629px 260.146px;" id="elbmwe3cj7yxb" class="animable"></path><path d="M358.07809,333.9031c-.6439-48.9559-.6439-98.3961,0-147.5144" style="fill: none; stroke: rgb(204, 204, 204); stroke-miterlimit: 10; transform-origin: 357.837px 260.146px;" id="elq5mjsrmbbp" class="animable"></path><path d="M371.11969,333.9031c-.202-48.9559-.202-98.3961,0-147.5144" style="fill: none; stroke: rgb(204, 204, 204); stroke-miterlimit: 10; transform-origin: 371.044px 260.146px;" id="ellpkyjtn84fl" class="animable"></path><path d="M384.16129,333.9031c.2401-48.9559,.2401-98.3961,0-147.5144" style="fill: none; stroke: rgb(204, 204, 204); stroke-miterlimit: 10; transform-origin: 384.251px 260.146px;" id="el9jb4i363s48" class="animable"></path><path d="M397.20289,333.9031c.6822-48.9559,.6822-98.3961,0-147.5144" style="fill: none; stroke: rgb(204, 204, 204); stroke-miterlimit: 10; transform-origin: 397.459px 260.146px;" id="elupw4beti8j" class="animable"></path><path d="M410.24449,333.9031c-1.123-48.9559-1.123-98.3961,0-147.5144" style="fill: none; stroke: rgb(204, 204, 204); stroke-miterlimit: 10; transform-origin: 409.823px 260.146px;" id="elm65g30b83sf" class="animable"></path><path d="M423.28619,333.9031c-.6811-48.9559-.6811-98.3961,0-147.5144" style="fill: none; stroke: rgb(204, 204, 204); stroke-miterlimit: 10; transform-origin: 423.031px 260.146px;" id="el4bfz33yuup4" class="animable"></path><path d="M84.2046,343.1093c-.9383-48.956-.9383-110.5816,0-159.7" style="fill: none; stroke: rgb(204, 204, 204); stroke-miterlimit: 10; transform-origin: 83.8527px 263.259px;" id="elqv16dwehuw9" class="animable"></path><path d="M97.2462,343.1093c-.4962-48.956-.4962-110.5816,0-159.7" style="fill: none; stroke: rgb(204, 204, 204); stroke-miterlimit: 10; transform-origin: 97.0601px 263.259px;" id="el1qbxg3wmyu5" class="animable"></path><path d="M110.2876,343.1093c-.0539-48.956-.0539-110.5816,0-159.7" style="fill: none; stroke: rgb(204, 204, 204); stroke-miterlimit: 10; transform-origin: 110.267px 263.259px;" id="el8u5odchctkq" class="animable"></path><path d="M123.3293,343.1093c.3881-48.956,.3881-110.5816,0-159.7" style="fill: none; stroke: rgb(204, 204, 204); stroke-miterlimit: 10; transform-origin: 123.475px 263.259px;" id="ela0hb7ta89ke" class="animable"></path><path d="M136.3709,343.1093c.83-48.956,.83-110.5816,0-159.7" style="fill: none; stroke: rgb(204, 204, 204); stroke-miterlimit: 10; transform-origin: 136.682px 263.259px;" id="el39p84sgei2m" class="animable"></path><path d="M149.4125,343.1093c-.9752-48.956-.9752-110.5816,0-159.7" style="fill: none; stroke: rgb(204, 204, 204); stroke-miterlimit: 10; transform-origin: 149.047px 263.259px;" id="eli53itc82hi" class="animable"></path><path d="M162.4541,343.1093c-.5331-48.956-.5331-110.5816,0-159.7" style="fill: none; stroke: rgb(204, 204, 204); stroke-miterlimit: 10; transform-origin: 162.254px 263.259px;" id="eltfq7ikzna6r" class="animable"></path><path d="M175.4957,343.1093c-.091-48.956-.091-110.5816,0-159.7" style="fill: none; stroke: rgb(204, 204, 204); stroke-miterlimit: 10; transform-origin: 175.462px 263.259px;" id="el788acsuwcy9" class="animable"></path><path d="M188.5373,343.1093c.3511-48.956,.3511-110.5816,0-159.7" style="fill: none; stroke: rgb(204, 204, 204); stroke-miterlimit: 10; transform-origin: 188.669px 263.259px;" id="el5cna5f1oci" class="animable"></path><path d="M201.57889,343.1093c.79311-48.956,.79311-110.5816,0-159.7" style="fill: none; stroke: rgb(204, 204, 204); stroke-miterlimit: 10; transform-origin: 201.876px 263.259px;" id="elzzx42dkpsjf" class="animable"></path><path d="M214.62049,343.1093c-1.0121-48.956-1.0121-110.5816,0-159.7" style="fill: none; stroke: rgb(204, 204, 204); stroke-miterlimit: 10; transform-origin: 214.241px 263.259px;" id="elwp21kqfkzpk" class="animable"></path><path d="M227.66219,343.1093c-.5701-48.956-.5701-110.5816,0-159.7" style="fill: none; stroke: rgb(204, 204, 204); stroke-miterlimit: 10; transform-origin: 227.448px 263.259px;" id="elf609m11afem" class="animable"></path><path d="M240.70379,343.1093c-.128-48.956-.128-110.5816,0-159.7" style="fill: none; stroke: rgb(204, 204, 204); stroke-miterlimit: 10; transform-origin: 240.656px 263.259px;" id="elqw9v00k9e5" class="animable"></path><path d="M253.74539,343.1093c.3139-48.956,.3139-110.5816,0-159.7" style="fill: none; stroke: rgb(204, 204, 204); stroke-miterlimit: 10; transform-origin: 253.863px 263.259px;" id="eldjwmxf2bgve" class="animable"></path><path d="M266.787,343.1093c.756-48.956,.756-110.5816,0-159.7" style="fill: none; stroke: rgb(204, 204, 204); stroke-miterlimit: 10; transform-origin: 267.07px 263.259px;" id="eleoz4k8ial4p" class="animable"></path><path d="M279.82859,343.1093c-1.0492-48.956-1.0492-110.5816,0-159.7" style="fill: none; stroke: rgb(204, 204, 204); stroke-miterlimit: 10; transform-origin: 279.435px 263.259px;" id="elc5jsgams2yd" class="animable"></path><path d="M292.87019,343.1093c-.6071-48.956-.6071-110.5816,0-159.7" style="fill: none; stroke: rgb(204, 204, 204); stroke-miterlimit: 10; transform-origin: 292.643px 263.259px;" id="eljlbdx7ir82l" class="animable"></path><path d="M305.91179,343.1093c-.1651-48.956-.1651-110.5816,0-159.7" style="fill: none; stroke: rgb(204, 204, 204); stroke-miterlimit: 10; transform-origin: 305.85px 263.259px;" id="elbgs3vsrrnef" class="animable"></path><path d="M318.95339,343.1093c.277-48.956,.277-110.5816,0-159.7" style="fill: none; stroke: rgb(204, 204, 204); stroke-miterlimit: 10; transform-origin: 319.057px 263.259px;" id="elmlxr1u40re" class="animable"></path><path d="M331.99509,343.1093c.719-48.956,.719-110.5816,0-159.7" style="fill: none; stroke: rgb(204, 204, 204); stroke-miterlimit: 10; transform-origin: 332.265px 263.259px;" id="el0nwkc12mlcda" class="animable"></path><path d="M345.03649,343.1093c-1.086-48.956-1.086-110.5816,0-159.7" style="fill: none; stroke: rgb(204, 204, 204); stroke-miterlimit: 10; transform-origin: 344.629px 263.259px;" id="elgp7bk6mpn94" class="animable"></path><path d="M358.07809,343.1093c-.6439-48.956-.6439-110.5816,0-159.7" style="fill: none; stroke: rgb(204, 204, 204); stroke-miterlimit: 10; transform-origin: 357.837px 263.259px;" id="elajy0f5jkkkk" class="animable"></path><path d="M371.11969,343.1093c-.202-48.956-.202-110.5816,0-159.7" style="fill: none; stroke: rgb(204, 204, 204); stroke-miterlimit: 10; transform-origin: 371.044px 263.259px;" id="el5aux7b7fc46" class="animable"></path><path d="M384.16129,343.1093c.2401-48.956,.2401-110.5816,0-159.7" style="fill: none; stroke: rgb(204, 204, 204); stroke-miterlimit: 10; transform-origin: 384.251px 263.259px;" id="el1cmjyjanul6" class="animable"></path><path d="M397.20289,343.1093c.6822-48.956,.6822-110.5816,0-159.7" style="fill: none; stroke: rgb(204, 204, 204); stroke-miterlimit: 10; transform-origin: 397.459px 263.259px;" id="el6x3vjtgp2ra" class="animable"></path><path d="M410.24449,343.1093c-1.123-48.956-1.123-110.5816,0-159.7" style="fill: none; stroke: rgb(204, 204, 204); stroke-miterlimit: 10; transform-origin: 409.823px 263.259px;" id="elo7tfvkint8" class="animable"></path><path d="M423.28619,343.1093c-.6811-48.956-.6811-110.5816,0-159.7" style="fill: none; stroke: rgb(204, 204, 204); stroke-miterlimit: 10; transform-origin: 423.031px 263.259px;" id="el25x0eok07bf" class="animable"></path></g><line x1="73.4515" y1="197.2703" x2="437.62359" y2="197.2703" style="fill: none; stroke: rgb(204, 204, 204); stroke-miterlimit: 10; transform-origin: 255.538px 197.27px;" id="elou60g0kr83h" class="animable"></line><line x1="73.4515" y1="208.8774" x2="437.62359" y2="208.8774" style="fill: none; stroke: rgb(204, 204, 204); stroke-miterlimit: 10; transform-origin: 255.538px 208.877px;" id="elkrh91nxsr3" class="animable"></line><line x1="73.4515" y1="220.4844" x2="437.62359" y2="220.4844" style="fill: none; stroke: rgb(204, 204, 204); stroke-miterlimit: 10; transform-origin: 255.538px 220.484px;" id="el44u7t7n24dq" class="animable"></line><line x1="73.4515" y1="232.0915" x2="437.62359" y2="232.0915" style="fill: none; stroke: rgb(204, 204, 204); stroke-miterlimit: 10; transform-origin: 255.538px 232.092px;" id="el8vwsrfpygi" class="animable"></line><line x1="73.4515" y1="243.6987" x2="437.62359" y2="243.6987" style="fill: none; stroke: rgb(204, 204, 204); stroke-miterlimit: 10; transform-origin: 255.538px 243.699px;" id="el4xd4nrhow5u" class="animable"></line><line x1="73.4515" y1="255.3058" x2="437.62359" y2="255.3058" style="fill: none; stroke: rgb(204, 204, 204); stroke-miterlimit: 10; transform-origin: 255.538px 255.306px;" id="elebmbsibo93p" class="animable"></line><line x1="73.4515" y1="266.9128" x2="437.62359" y2="266.9128" style="fill: none; stroke: rgb(204, 204, 204); stroke-miterlimit: 10; transform-origin: 255.538px 266.913px;" id="el10el2der4r9b" class="animable"></line><line x1="73.4515" y1="278.5198" x2="437.62359" y2="278.5198" style="fill: none; stroke: rgb(204, 204, 204); stroke-miterlimit: 10; transform-origin: 255.538px 278.52px;" id="elw11pccg1v2" class="animable"></line><line x1="73.4515" y1="290.1269" x2="437.62359" y2="290.1269" style="fill: none; stroke: rgb(204, 204, 204); stroke-miterlimit: 10; transform-origin: 255.538px 290.127px;" id="eldpcygnfus16" class="animable"></line><line x1="73.4515" y1="301.7341" x2="437.62359" y2="301.7341" style="fill: none; stroke: rgb(204, 204, 204); stroke-miterlimit: 10; transform-origin: 255.538px 301.734px;" id="elru8guneupe" class="animable"></line><line x1="73.4515" y1="313.3412" x2="437.62359" y2="313.3412" style="fill: none; stroke: rgb(204, 204, 204); stroke-miterlimit: 10; transform-origin: 255.538px 313.341px;" id="eled4k916u1y5" class="animable"></line><line x1="73.4515" y1="324.9482" x2="437.62359" y2="324.9482" style="fill: none; stroke: rgb(204, 204, 204); stroke-miterlimit: 10; transform-origin: 255.538px 324.948px;" id="elmej86ioxbse" class="animable"></line><line x1="73.4515" y1="337.1339" x2="437.62359" y2="337.1339" style="fill: none; stroke: rgb(204, 204, 204); stroke-miterlimit: 10; transform-origin: 255.538px 337.134px;" id="elwrdxcuknm2g" class="animable"></line></g><path d="M435.447,183.84H77.079c-4.2052,0-7.627,3.4219-7.627,7.627v152.3429h3.6462V195.2841l16.0638,10.6463c2.7275,1.8088,4.3555,4.8426,4.3555,8.113v129.7395h3.6461V214.0434c0-4.4971-2.2378-8.6648-5.9871-11.152l-18.0255-11.9474c.2591-1.9463,1.9119-3.4578,3.928-3.4578H435.447c1.88269,0,3.45549,1.3171,3.86749,3.076l-18.6016,12.331c-3.7493,2.4854-5.9873,6.6549-5.9873,11.1502v129.7395h3.6461V214.0434c0-3.2704,1.6291-6.3023,4.3566-8.1112l16.6994-11.0685v148.9462h3.6461V191.467c0-4.2051-3.4217-7.627-7.62679-7.627Z" style="fill: rgb(255, 255, 255); stroke: rgb(38, 50, 56); stroke-miterlimit: 10; transform-origin: 256.263px 263.825px;" id="eltklxarc70ei" class="animable"></path></g></g><g id="freepik--Character_3--inject-10" class="animable" style="transform-origin: 264.263px 281.982px;"><g id="el3u4aip1lpfi" class="animable" style="transform-origin: 264.263px 281.982px;"><g id="eluqusjc92j4f" class="animable" style="transform-origin: 237.329px 325.314px;"><path d="M238.40439,300.6606s-4.0641,7.172-4.3031,9.5627c-.2392,2.3907-2.1517,32.0349-2.1517,32.0349,0,0-7.4111,5.4985-7.4111,6.694,0,1.1953,2.3907,1.1953,3.586,.7171,1.1953-.4781,8.84551-3.8251,9.0846-5.0204,.239-1.1953,0-4.5422,0-4.5422,0,0,7.411-26.7756,7.6501-28.6881s5.2595-8.8454,5.2595-8.8454l-11.7143-1.9126Z" style="fill: rgb(212, 212, 212); stroke: rgb(38, 50, 56); stroke-miterlimit: 10; transform-origin: 237.329px 325.314px;" id="el6xrr32jfm9b" class="animable"></path><path d="M228.12449,349.6693c1.1953-.4781,8.84551-3.8251,9.0846-5.0204,.1758-.8793,.093-2.919,.037-3.9382-1.8707,.152-3.665,.0803-5.1913-.0773-.0661,1.0195-.1052,1.6248-.1052,1.6248,0,0-7.4111,5.4985-7.4111,6.694,0,1.1953,2.3907,1.1953,3.586,.7171Z" style="fill: rgb(38, 50, 56); stroke: rgb(38, 50, 56); stroke-linecap: round; stroke-linejoin: round; transform-origin: 230.927px 345.301px;" id="eln1eat5jmr9l" class="animable"></path><path d="M237.20909,340.1067s6.929-25.0341,7.6025-28.4159c-4.4722,2.2015-8.4753,1.265-10.8462,.2507-.4851,6.6235-1.9158,28.7678-2.0105,30.2361,3.6655,2.488,4.537-.6366,4.537-.6366l.7777-.3629c-.0288-.6239-.0605-1.0714-.0605-1.0714Z" style="fill: rgb(255, 255, 255); stroke: rgb(38, 50, 56); stroke-linecap: round; stroke-linejoin: round; transform-origin: 238.383px 327.415px;" id="elg0h714nvhv5" class="animable"></path></g><g id="ellwrtfg3z5s" class="animable" style="transform-origin: 290.401px 325.314px;"><path d="M289.32559,300.6606s4.0642,7.172,4.3032,9.5627c.2391,2.3907,2.1516,32.0349,2.1516,32.0349,0,0,7.4112,5.4985,7.4112,6.694,0,1.1953-2.3908,1.1953-3.586,.7171-1.1955-.4781-8.84559-3.8251-9.08459-5.0204-.23911-1.1953,0-4.5422,0-4.5422,0,0-7.411-26.7756-7.65021-28.6881-.239-1.9125-5.2595-8.8454-5.2595-8.8454l11.7143-1.9126Z" style="fill: rgb(212, 212, 212); stroke: rgb(38, 50, 56); stroke-miterlimit: 10; transform-origin: 290.401px 325.314px;" id="elholk9490oue" class="animable"></path><path d="M299.60559,349.6693c-1.1955-.4781-8.84559-3.8251-9.08459-5.0204-.17591-.8793-.093-2.919-.037-3.9382,1.87069,.152,3.66479,.0803,5.19129-.0773,.0661,1.0195,.1051,1.6248,.1051,1.6248,0,0,7.4112,5.4985,7.4112,6.694,0,1.1953-2.3908,1.1953-3.586,.7171Z" style="fill: rgb(38, 50, 56); stroke: rgb(38, 50, 56); stroke-linecap: round; stroke-linejoin: round; transform-origin: 296.803px 345.301px;" id="elkr9olgxxe8d" class="animable"></path><path d="M290.521,340.1067s-6.929-25.0341-7.60251-28.4159c4.472,2.2015,8.4751,1.265,10.8461,.2507,.4851,6.6235,1.9159,28.7678,2.0106,30.2361-3.6655,2.488-4.5371-.6366-4.5371-.6366l-.7777-.3629c.0289-.6239,.06061-1.0714,.06061-1.0714Z" style="fill: rgb(255, 255, 255); stroke: rgb(38, 50, 56); stroke-linecap: round; stroke-linejoin: round; transform-origin: 289.347px 327.415px;" id="elf6189arjdav" class="animable"></path></g><path d="M303.35089,287.6713s-1.5938-19.2847-1.7532-21.3567c-.1593-2.0719-13.8659-19.444-13.8659-19.444,0,0-4.14379-3.9845-8.76579-7.8096-4.62191-3.825-9.88131-4.3032-9.88131-4.3032l-2.39069-.1449v-.1737l-1.43451,.0868-1.4343-.0868v.1737l-2.3907,.1449s-5.25949,.4782-9.8814,4.3032c-4.622,3.8251-8.7658,7.8096-8.7658,7.8096,0,0-13.7065,17.3721-13.8659,19.444-.15939,2.072-1.7531,21.3567-1.7531,21.3567,0,0-.6375,3.5063-.6375,4.3032s2.3906,2.3906,2.3906,2.3906c0,0,4.46261-.6374,4.9407-1.7531,.4782-1.1157,.4782-2.2313,.4782-2.2313,0,0,.6375-.1594,.4781-1.4343-.15939-1.2751-2.70939-4.6221-2.70939-4.6221,0,0,2.07189-9.7219,3.02809-13.2283,.9563-3.5063,1.5938-5.5782,1.5938-5.5782l14.3622-12.127,.6193,19.7771s-7.9688,11.6346-9.8813,16.7347c-1.9127,5.1001-4.7815,11.6345-4.7815,11.6345l12.9098,7.0127s9.56261-12.7503,10.0407-13.3878c.4781-.6375,4.3032-4.622,4.3032-4.622l.9562-.3825,.9563,.3825s3.82521,3.9845,4.30321,4.622c.47819,.6375,10.04079,13.3878,10.04079,13.3878l12.9096-7.0127s-2.8688-6.5344-4.7813-11.6345-9.8814-16.7347-9.8814-16.7347l.3877-17.5248,14.5939,9.8747s.6374,2.0719,1.59371,5.5782c.95629,3.5064,3.02809,13.2283,3.02809,13.2283,0,0-2.55,3.347-2.7093,4.6221-.1594,1.2749,.4781,1.4343,.4781,1.4343,0,0,0,1.1156,.47811,2.2313,.47809,1.1157,4.94069,1.7531,4.94069,1.7531,0,0,2.3907-1.5937,2.3907-2.3906s-.6375-4.3032-.6375-4.3032Z" style="fill: rgb(212, 212, 212); stroke: rgb(38, 50, 56); stroke-miterlimit: 10; transform-origin: 265.26px 271.495px;" id="eld0o574magok" class="animable"></path><path d="M301.59769,266.3146c-.1593-2.0719-13.8659-19.444-13.8659-19.444,0,0-4.14379-3.9845-8.76579-7.8096-4.62191-3.825-9.88131-4.3032-9.88131-4.3032l-2.39069-.1449v-.1737l-1.43451,.0868-1.4343-.0868v.1737l-2.3907,.1449s-5.25949,.4782-9.8814,4.3032c-4.622,3.8251-8.7658,7.8096-8.7658,7.8096,0,0-13.7065,17.3721-13.8659,19.444-.1229,1.5993-1.1,13.4467-1.5396,18.7722l4.72721-.7625s2.07189-9.7219,3.02809-13.2283c.9563-3.5063,1.5938-5.5782,1.5938-5.5782l14.3622-12.127,.6193,19.7771s-7.9688,11.6346-9.8813,16.7347c-1.9127,5.1001-4.7815,11.6345-4.7815,11.6345l12.9098,7.0127s9.56261-12.7503,10.0407-13.3878c.4781-.6375,4.3032-4.622,4.3032-4.622l.9562-.3825,.9563,.3825s3.82521,3.9845,4.30321,4.622c.47819,.6375,10.04079,13.3878,10.04079,13.3878l12.9096-7.0127s-2.8688-6.5344-4.7813-11.6345-9.8814-16.7347-9.8814-16.7347l.3877-17.5248,14.5939,9.8747s.6374,2.0719,1.59371,5.5782c.876,3.2119,2.68709,11.6347,2.98509,13.0269l4.8195,1.5593c-.4108-4.9748-1.461-17.7055-1.5889-19.3676Z" style="fill: rgb(0, 165, 255); stroke: rgb(38, 50, 56); stroke-miterlimit: 10; transform-origin: 265.284px 271.495px;" id="ela4gj10orc6f" class="animable"></path><path d="M288.68809,289.9026c-1.6613-4.4302-7.8894-13.7865-9.4978-16.1693-2.7822,2.7745-8.6117,7.7006-13.9442,6.4965-7.3287-1.6549-13.5337-7.0619-13.5337-7.0619,0,0-7.9688,11.6346-9.8813,16.7347-1.9127,5.1001-4.7814,11.6345-4.7814,11.6345l12.9096,7.0127s9.56271-12.7503,10.0409-13.3878c.478-.6375,4.3031-4.622,4.3031-4.622l.9563-.3825,.9562,.3825s3.82521,3.9845,4.30321,4.622c.47819,.6375,10.04079,13.3878,10.04079,13.3878l12.9096-7.0127s-2.8688-6.5344-4.7813-11.6345Z" style="fill: rgb(38, 50, 56); stroke: rgb(38, 50, 56); stroke-linecap: round; stroke-linejoin: round; transform-origin: 265.26px 290.859px;" id="elxu2i2k616gf" class="animable"></path><path d="M257.51209,235.6009s.4566,9.2605,2.9336,13.1574,4.80831,4.4537,8.0139,0c3.2056-4.4536,1.5541-13.1574,1.5541-13.1574h-12.5016Z" style="fill: rgb(38, 50, 56); stroke: rgb(38, 50, 56); stroke-linecap: round; stroke-linejoin: round; transform-origin: 263.976px 243.747px;" id="elt2uiwhhys7q" class="animable"></path><path d="M287.73179,246.8706s-4.14379-3.9845-8.7656-7.8096c-.82319-.6812-1.666-1.2519-2.4964-1.737l2.7246,18.3191,14.5939,9.8746s.6374,2.072,1.5936,5.5783c.87611,3.2119,2.6872,11.6346,2.9852,13.0269l4.8195,1.5593c-.4108-4.9748-1.461-17.7054-1.5889-19.3676-.1593-2.0719-13.8659-19.444-13.8659-19.444Z" style="fill: rgb(38, 50, 56); stroke: rgb(38, 50, 56); stroke-linecap: round; stroke-linejoin: round; transform-origin: 289.828px 261.503px;" id="elcwxcviy0nhb" class="animable"></path><path d="M251.55309,239.061c-4.622,3.8251-8.7658,7.8096-8.7658,7.8096,0,0-13.7065,17.3721-13.8659,19.444-.1229,1.5993-1.1,13.4467-1.5396,18.7722l4.72721-.7625s2.07189-9.7221,3.02809-13.2283c.9563-3.5063,1.59391-5.5783,1.59391-5.5783l14.36209-12.1269,.67491-14.4969c-.07141,.0573-.14381,.1083-.21491,.1671Z" style="fill: rgb(38, 50, 56); stroke: rgb(38, 50, 56); stroke-linecap: round; stroke-linejoin: round; transform-origin: 239.575px 261.99px;" id="elffa49inoq4m" class="animable"></path><path d="M258.70339,238.1746s1.1863,6.0301,2.8667,8.798c1.6806,2.7679,3.2622,3.1633,5.437,0s2.1748-8.5014,2.1748-8.5014l-10.4785-.2966Z" style="fill: rgb(212, 212, 212); stroke: rgb(38, 50, 56); stroke-miterlimit: 10; transform-origin: 263.943px 243.687px;" id="el114u49wk8hfj" class="animable"></path><g id="ellgu29iiykrp" class="animable" style="transform-origin: 263.911px 228.289px;"><path d="M255.81639,228.4074s-1.88239-.753-2.0707,1.8823c-.1882,2.6355,1.506,4.3297,2.6355,3.5768,1.1295-.753-.5648-5.4591-.5648-5.4591Z" style="fill: rgb(212, 212, 212); stroke: rgb(38, 50, 56); stroke-miterlimit: 10; transform-origin: 255.25px 231.177px;" id="ellz5uv8t0n8" class="animable"></path><path d="M272.00549,228.4074s1.88251-.753,2.0707,1.8823c.1883,2.6355-1.506,4.3297-2.6355,3.5768-1.1294-.753,.5648-5.4591,.5648-5.4591Z" style="fill: rgb(212, 212, 212); stroke: rgb(38, 50, 56); stroke-miterlimit: 10; transform-origin: 272.572px 231.177px;" id="el2fkp0zqk7te" class="animable"></path><path d="M266.94349,214.7325c-3.0561-1.2557-6.6061-.9221-9.1976,1.1274-.926,.7323-1.6863,1.631-1.9687,2.704-.94119,3.5766-.902,11.9141,.604,15.3026,1.506,3.3884,2.8236,8.2827,6.965,8.6592,4.1415,.3765,6.5886-1.1295,7.1533-5.2708,.5647-4.1414,1.6942-6.4004,1.88251-9.0358,.18819-2.6354,.93839-7.8873-1.23751-10.7431-.6608-.8673-2.3481-1.9821-4.201-2.7435Z" style="fill: rgb(212, 212, 212); stroke: rgb(38, 50, 56); stroke-miterlimit: 10; transform-origin: 263.903px 228.289px;" id="el4nstevjr7n" class="animable"></path><polyline points="262.98489 232.7072 264.83229 234.5171 264.53579 228.487 265.70469 227.2675 268.77549 224.4952" style="fill: none; stroke: rgb(38, 50, 56); stroke-linecap: round; stroke-linejoin: round; transform-origin: 265.88px 229.506px;" id="elawd2mk7rdtj" class="animable"></polyline><path d="M254.78819,226.2015s8.1505,1.0812,12.8911,.5821c4.7406-.499,5.1564-.7485,5.1564-.7485,0,0,.3327,1.5802,.1664,2.1624-.1664,.5822-2.0792,3.8258-3.8258,4.2416-1.7465,.4158-4.0752-1.996-5.57229-1.996-1.497,0-1.82971,1.7465-3.90891,1.996s-4.5743-1.9129-4.7406-2.6614-.1663-3.5762-.1663-3.5762Z" style="fill: rgb(38, 50, 56); stroke: rgb(38, 50, 56); stroke-linecap: round; stroke-linejoin: round; transform-origin: 263.918px 229.261px;" id="elc7x0hg7y654" class="animable"></path><line x1="260.809" y1="235.0191" x2="263.66479" y2="236.651" style="fill: none; stroke: rgb(38, 50, 56); stroke-linecap: round; stroke-linejoin: round; transform-origin: 262.237px 235.835px;" id="elfyzc5f1f78d" class="animable"></line><line x1="262.18419" y1="225.6097" x2="257.66479" y2="224.6272" style="fill: none; stroke: rgb(38, 50, 56); stroke-linecap: round; stroke-linejoin: round; transform-origin: 259.924px 225.118px;" id="elmfsjpv20g8h" class="animable"></line></g></g></g><g id="freepik--Character_2--inject-10" class="animable" style="transform-origin: 360.74px 251.779px;"><g id="elhmwzl96vnzq" class="animable" style="transform-origin: 360.74px 251.779px;"><g id="el1qnfkc8y7wd" class="animable" style="transform-origin: 414.949px 221.655px;"><path d="M394.42479,190.9942s7.6444,8.3655,16.5868,15.5772c8.9425,7.2117,19.6158,16.1541,19.6158,16.1541,0,0,13.7021,3.8943,15.4329,5.1924,1.7309,1.2981,5.9136,4.7598,6.4906,6.4906,.5769,1.7308,4.6154,8.9424,3.8943,10.6732-.72119,1.7308-2.59619,.4327-2.59619,.4327,0,0,.57689,2.0193-1.44241,2.452-2.0192,.4327-4.9039-5.6251-5.1924-6.0578s-1.1539-1.1539-1.1539-1.1539c0,0,2.7405,6.2021,2.88471,8.0771,.14429,1.875-.43271,4.327-1.875,3.4616-1.44241-.8654-2.16351-3.3174-2.30781-3.7501-.14419-.4327-.7211-1.875-.7211-2.4519,0-.577-.4327-1.2981-.4327-1.7308s.4327,3.6058,.1442,5.6251c-.2885,2.0192-1.875,2.4519-2.1635,1.0096s-.1442-5.7693-.1442-5.7693l-2.3078-3.4616s-6.3462-2.0193-10.0963-4.4713c-3.7501-2.4519-5.3366-5.3366-5.3366-5.3366,0,0-22.7889-8.7983-36.0584-17.4523-13.2695-8.654-14.2791-16.2983-14.2791-16.2983,0,0,4.6155-6.4905,8.22131-7.0675,3.60579-.5769,12.83679-.1442,12.83679-.1442Z" style="fill: rgb(255, 255, 255); stroke: rgb(38, 50, 56); stroke-miterlimit: 10; transform-origin: 414.949px 221.655px;" id="eloqamqsafd1k" class="animable"></path><path d="M440.72369,227.9179s9.0867,2.3078,9.9521,2.1635c.8654-.1442,2.3078-.1442,1.8751,1.5866s-2.7405,2.1635-3.7501,2.1635-6.3463-.8654-7.0675-.8654c-.7211,0-5.9135,1.7308-8.3655,1.5866s-4.4712-1.2981-4.4712-3.7501" style="fill: rgb(255, 255, 255); stroke: rgb(38, 50, 56); stroke-miterlimit: 10; transform-origin: 440.763px 231.24px;" id="eljexqw0gms4n" class="animable"></path><path d="M453.849,245.5144s-2.01931-3.3173-2.59621-4.1827c-.577-.8654-3.4616-4.1828-3.4616-4.1828" style="fill: rgb(255, 255, 255); stroke: rgb(38, 50, 56); stroke-miterlimit: 10; transform-origin: 450.82px 241.332px;" id="elr0qb8xgkxq" class="animable"></path><line x1="443.60839" y1="244.3606" x2="442.45449" y2="241.3317" style="fill: rgb(255, 255, 255); stroke: rgb(38, 50, 56); stroke-miterlimit: 10; transform-origin: 443.031px 242.846px;" id="el9p819v6xtv4" class="animable"></line><path d="M448.65659,235.7066s-2.452,3.0289-5.1925,4.0385" style="fill: rgb(255, 255, 255); stroke: rgb(38, 50, 56); stroke-miterlimit: 10; transform-origin: 446.06px 237.726px;" id="el7z3up56c8yb" class="animable"></path></g><g id="elms9p6nhdhhh" class="animable" style="transform-origin: 299.881px 382.505px;"><path d="M302.27509,329.2693v22.0229s-10.1186,4.7617-13.8883,11.5075-14.682,37.8953-14.682,37.8953c0,0-6.4179,15.2138-7.9361,22.2213-2.5793,11.9043,1.5872,11.1107,3.3728,12.1027,1.7857,.992,17.0628,.7936,19.2453,.3968,2.1824-.3968,2.9761-2.7777,2.7777-7.341-.19849-4.5633-3.7697-12.4995-2.7777-16.0708,.992-3.5712,3.1745-5.9521,4.7617-7.9361,1.5872-1.9841,8.5314-9.5235,14.0867-19.4437,5.5554-9.9202,15.2772-14.0867,19.4437-20.6341,4.1665-6.5473,6.7457-15.0787,6.7457-19.2452s1.3889-15.4756,1.3889-15.4756h-32.5384Z" style="fill: rgb(255, 255, 255); stroke: rgb(38, 50, 56); stroke-miterlimit: 10; transform-origin: 299.881px 382.505px;" id="elsp8dkmymjqk" class="animable"></path><path d="M291.91339,405.5944c-1.6543,.0946-3.5043,.172-5.5683,.2132-5.58509,.1117-10.5848-1.1203-13.8426-2.193-1.9331,4.7667-5.6292,14.2035-6.7339,19.3017-2.5792,11.9043,1.5873,11.1106,3.373,12.1027,1.7856,.992,17.0627,.7936,19.2452,.3968,2.1824-.3968,2.9761-2.7777,2.7777-7.341-.19849-4.5633-3.7698-12.4995-2.7777-16.0708,.7514-2.705,2.18521-4.7257,3.5266-6.4096Z" style="fill: rgb(0, 165, 255); stroke: rgb(38, 50, 56); stroke-miterlimit: 10; transform-origin: 278.431px 419.678px;" id="eln3zsi9urerp" class="animable"></path><path d="M288.38679,362.7997c-3.7697,6.7457-14.6819,37.8952-14.6819,37.8952,0,0-1.3806,3.4297-3.0231,7.7762,1.5647,1.8631,3.96921,3.945,7.3879,4.9218,6.9442,1.984,10.3171-1.3889,10.3171-1.3889,.992-3.5713,3.1744-5.9521,4.7617-7.9361,1.5872-1.9841,8.5314-9.5235,14.0868-19.4437,5.5553-9.9202,15.2771-14.0867,19.4436-20.6341,.5116-.804,.9987-1.6385,1.4606-2.4906-3.7021,1.9672-10.3361,4.0813-16.7378,1.8954-8.1346-2.7777-9.1266-13.2931-9.1266-13.2931v1.1904s-10.1186,4.7618-13.8883,11.5075Z" style="fill: rgb(255, 255, 255); stroke: rgb(38, 50, 56); stroke-miterlimit: 10; transform-origin: 299.411px 382.06px;" id="el3xee6fd1tyk" class="animable"></path><path d="M269.93509,432.4397c-2.6652-.9457-4.0983-3.1211-4.8697-5.2826-.7653,7.4705,2.5375,7.007,4.0762,7.8619,1.7856,.992,17.0627,.7936,19.2452,.3968,1.3258-.2411,2.1325-1.2262,2.52221-2.9761-4.06081,1.1142-15.16621,2.0607-20.97391,0Z" style="fill: rgb(255, 255, 255); stroke: rgb(38, 50, 56); stroke-miterlimit: 10; transform-origin: 277.931px 431.449px;" id="elpoxn7kdq6a" class="animable"></path></g><path d="M377.47459,390.3367s-1.00159,2.2893-1.8601,2.7185c-.85849,.4293-1.5739,.1431-2.1463,1.8601-.5723,1.717-5.7233,22.3211-4.7217,26.4705,1.00151,4.1494,7.5834,6.0095,12.4482,6.0095s15.31-1.2877,17.45631-.7154c2.14619,.5724,14.16519,3.5771,18.17159,3.2909,4.0063-.2861,14.30841-3.434,13.3068-7.5834-1.0016-4.1494-1.1447-6.5818-11.1606-10.0159-10.01579-3.434-10.4451-2.7185-15.7392-5.5802s-6.0095-3.8633-6.0095-3.8633l.2862-4.1494s-12.7345-8.585-20.0317-8.4419Z" style="fill: rgb(255, 255, 255); stroke: rgb(38, 50, 56); stroke-miterlimit: 10; transform-origin: 399.408px 410.162px;" id="ellyp00ov1i5q" class="animable"></path><path d="M416.82259,429.9708c4.0063-.2862,14.3083-3.434,13.3068-7.5834-1.0016-4.1494-1.1447-6.5819-11.1606-10.0159-10.01579-3.434-10.4451-2.7185-15.7392-5.5802-5.294-2.8617-6.0095-3.8633-6.0095-3.8633,0,0-3.72009,2.0032-4.0063,3.0047-.2862,1.0016-3.1479,3.4341-6.7249,2.4325-3.5771-1.0016-9.0143-5.2941-9.8728-10.0159-.4449-2.4467-.7734-4.1582-.9877-5.3043l-.0139,.0102c-.85849,.4293-1.5739,.1431-2.1463,1.8601-.5723,1.717-5.7233,22.3211-4.7217,26.4705s7.5834,6.0095,12.4482,6.0095,15.31-1.2878,17.45631-.7154c2.14619,.5724,14.16519,3.5771,18.17159,3.2909Z" style="fill: rgb(0, 165, 255); stroke: rgb(38, 50, 56); stroke-miterlimit: 10; transform-origin: 399.408px 411.517px;" id="ell2i82v42mr8" class="animable"></path><path d="M419.28479,427.8648c-2.94579,.6931-11.0902-2.0795-16.8086-3.639s-8.6643,.3466-21.3141,.6931c-6.961,.1908-10.61209-1.9794-12.4918-3.9703,.0196,.1611,.0448,.3073,.0762,.4372,1.0016,4.1494,7.5834,6.0095,12.4482,6.0095s15.31-1.2878,17.45631-.7154c2.14619,.5724,14.16529,3.5771,18.17159,3.2909s14.3083-3.434,13.3068-7.5834c-.7656,2.3204-7.8987,4.7842-10.8446,5.4774Z" style="fill: rgb(255, 255, 255); stroke: rgb(38, 50, 56); stroke-miterlimit: 10; transform-origin: 399.434px 425.469px;" id="elciitel0ouwr" class="animable"></path><path d="M391.16039,337.6023s-7.3901,9.8092-8.1056,17.5358c-.7154,7.7265-1.8601,24.6104-1.8601,25.0396,0,.4293-4.1494,9.8728-3.1478,12.7345,1.0016,2.8616,11.876,7.8696,14.5945,7.8696s5.7234-.8585,6.725-2.5755c1.00161-1.717,9.7297-25.3259,11.0174-29.1891,1.2878-3.8633,1.1447-6.1526,1.4309-7.0111,.2861-.8585,5.0079-13.7361,5.0079-16.4546s-1.00159-4.4356-1.00159-4.4356l-24.66061-3.5136Z" style="fill: rgb(255, 255, 255); stroke: rgb(38, 50, 56); stroke-miterlimit: 10; transform-origin: 397.357px 369.192px;" id="elw31c6ksrh8l" class="animable"></path><g id="elqc5hchq5trg" class="animable" style="transform-origin: 395.223px 324.705px;"><path d="M408.71289,304.3362s6.8512,13.8225,9.0337,20.965c2.18241,7.1426-.79359,15.2772-1.5872,17.4596-.7937,2.1825-10.3171,5.7538-17.2612,2.3809-6.94419-3.3729-7.7378-7.5394-7.7378-7.5394l-19.2453-20.6341,35.5145-14.0867,1.2833,1.4547Z" style="fill: rgb(255, 255, 255); stroke: rgb(38, 50, 56); stroke-miterlimit: 10; transform-origin: 395.223px 324.705px;" id="elx88qisc2qf" class="animable"></path><path d="M401.94859,339.3632c1.6121-.3225,3.2985-1.1657,4.6873-2.9513" style="fill: none; stroke: rgb(38, 50, 56); stroke-miterlimit: 10; transform-origin: 404.292px 337.888px;" id="elud36hyoyx6o" class="animable"></path><path d="M392.74759,337.2055s2.7777,1.3888,4.9601,1.984" style="fill: none; stroke: rgb(38, 50, 56); stroke-miterlimit: 10; transform-origin: 395.228px 338.198px;" id="elz76i0wu70t" class="animable"></path></g><g id="elmqez0ehh5h" class="animable" style="transform-origin: 351.166px 285.352px;"><path d="M371.66879,242.044s1.4486,3.1043,2.6903,3.5182,5.7947,2.6904,5.3808,4.346c-.41389,1.6556-1.0348,4.7598-1.0348,4.7598,0,0,7.0363,7.2433,8.89891,10.1406,1.86249,2.8973,20.695,38.4928,21.10889,39.5276,.4139,1.0347-40.5623,19.0394-42.6318,19.6603-2.0695,.6208-3.932,1.4486-3.932,1.4486l-20.90209-22.9715-2.48341,29.594-44.3717,.9392s-.9538-28.0321-.7468-39.2074c.20691-11.1753,.3778-35.9861,2.2404-42.1946,1.86251-6.2085,4.5923-13.9067,4.5923-13.9067l71.191,4.3459Z" style="fill: rgb(0, 165, 255); stroke: rgb(38, 50, 56); stroke-miterlimit: 10; transform-origin: 351.166px 285.352px;" id="elggvlnvbo1yj" class="animable"></path><path d="M338.30219,281.4895c3.96181,8.1064,3.7726,9.8088,3.7726,9.8088" style="fill: none; stroke: rgb(38, 50, 56); stroke-miterlimit: 10; transform-origin: 340.189px 286.394px;" id="el9w7vt5zwe9m" class="animable"></path><path d="M322.82839,269.5685s7.6641,1.2262,12.7027,7.3724" style="fill: none; stroke: rgb(38, 50, 56); stroke-miterlimit: 10; transform-origin: 329.18px 273.255px;" id="el31y7jq1clg1" class="animable"></path><path d="M371.87569,266.8781s-9.31269,15.1074-13.2448,18.6256" style="fill: none; stroke: rgb(38, 50, 56); stroke-miterlimit: 10; transform-origin: 365.253px 276.191px;" id="el21s3pxhwuty" class="animable"></path><path d="M376.42859,259.014s-2.2764,8.0711-5.58759,14.4865" style="fill: none; stroke: rgb(38, 50, 56); stroke-miterlimit: 10; transform-origin: 373.635px 266.257px;" id="elu7dqm8b145" class="animable"></path><line x1="341.247" y1="302.4736" x2="342.28179" y2="295.8512" style="fill: none; stroke: rgb(38, 50, 56); stroke-miterlimit: 10; transform-origin: 341.764px 299.162px;" id="eli0e91pqjldl" class="animable"></line><line x1="359.08219" y1="314.5784" x2="364.98969" y2="321.457" style="fill: none; stroke: rgb(38, 50, 56); stroke-miterlimit: 10; transform-origin: 362.036px 318.018px;" id="el348tbllxb1a" class="animable"></line><line x1="345.74529" y1="299.0491" x2="354.10709" y2="308.7854" style="fill: none; stroke: rgb(38, 50, 56); stroke-miterlimit: 10; transform-origin: 349.926px 303.917px;" id="el3kuvv7xn4lu" class="animable"></line></g><g id="ellah4aq6o60g" class="animable" style="transform-origin: 345.402px 185.704px;"><path d="M347.91079,117.6857s-3.0831-.9487-4.9805,.4743c-1.89729,1.423-3.0832,2.3717-3.0832,2.3717,0,0-12.3327,4.269-17.5505,6.8779-5.2177,2.6088-12.5699,23.7168-13.7557,30.5947-1.18589,6.8779-5.2177,58.1063-6.4036,65.2214-1.1858,7.115-3.7947,14.7044-2.3717,17.5504,1.423,2.8461,23.00541,11.147,30.12041,11.8585,7.11509,.7115,19.685,3.3203,30.35759-1.1859,10.6726-4.5062,13.5186-5.692,13.7558-10.6726,.2372-4.9805,5.692-41.9788,6.4035-44.8248s4.26911,.4743,10.1983-.7115c5.9292-1.1859,7.5894-5.6921,7.5894-5.6921,0,0-.4744-2.846-1.423-8.0637-.9487-5.2177-1.1859-21.8195-2.3717-30.3576-1.18589-8.538-3.5575-11.6212-9.0124-16.6018-5.4549-4.9805-15.1532-10.4235-17.30049-10.6666-2.14731-.2431-20.17221-6.1723-20.17221-6.1723Z" style="fill: rgb(255, 255, 255); stroke: rgb(38, 50, 56); stroke-miterlimit: 10; transform-origin: 348.771px 185.704px;" id="el7t8h8gib5gw" class="animable"></path><path d="M328.20919,127.3934s-1.6557-1.0348-8.2781,1.8626c-6.6224,2.8973-10.7614,6.6224-12.00309,9.1058-1.24171,2.4834-8.89891,25.248-10.34751,28.7661-1.4487,3.5182-4.9669,5.7946-4.9669,8.278s2.4835,9.1059,4.346,10.5545c1.8626,1.4487,24.8341-1.2417,25.6619-2.2764,.8278-1.0348,2.8973-8.8989,3.3112-10.7615,.4139-1.8625,5.3807-6.2085,6.8294-10.5544,1.4486-4.346,1.2417-11.3823,.41391-18.2117" style="fill: rgb(255, 255, 255); stroke: rgb(38, 50, 56); stroke-miterlimit: 10; transform-origin: 313.219px 156.797px;" id="elnetls64wx3i" class="animable"></path><path d="M339.584,154.5522c-.81831,3.3824-2.15421,7.7344-4.13161,10.9201" style="fill: none; stroke: rgb(38, 50, 56); stroke-miterlimit: 10; transform-origin: 337.518px 160.012px;" id="eluvn9zemeb6" class="animable"></path><path d="M340.62619,149.3302s-.1527,1.0687-.4863,2.7175" style="fill: none; stroke: rgb(38, 50, 56); stroke-miterlimit: 10; transform-origin: 340.383px 150.689px;" id="elz5mpbbir35c" class="animable"></path><path d="M342.66139,166.9837c-3.2149,2.0576-7.8598,4.6649-13.2105,5.9388" style="fill: none; stroke: rgb(38, 50, 56); stroke-miterlimit: 10; transform-origin: 336.056px 169.953px;" id="elv7358ulbr8h" class="animable"></path><path d="M346.83469,164.2306c-.4469,.2483-1.1798,.7587-2.1558,1.4198" style="fill: none; stroke: rgb(38, 50, 56); stroke-miterlimit: 10; transform-origin: 345.757px 164.941px;" id="elfo66blqowvp" class="animable"></path><path d="M345.30519,210.8268c3.599,1.2611,6.755,2.1407,8.77281,2.2442" style="fill: none; stroke: rgb(38, 50, 56); stroke-miterlimit: 10; transform-origin: 349.692px 211.949px;" id="elgu15lwecgt8" class="animable"></path><path d="M319.72419,199.8261s12.7777,6.2379,23.2504,10.1553" style="fill: none; stroke: rgb(38, 50, 56); stroke-miterlimit: 10; transform-origin: 331.349px 204.904px;" id="elh1oppwjmdyt" class="animable"></path><path d="M322.02,207.3258c2.55909,1.5891,5.72239,3.0546,9.29339,3.6756" style="fill: none; stroke: rgb(38, 50, 56); stroke-miterlimit: 10; transform-origin: 326.667px 209.164px;" id="elb5r5wo3isfc" class="animable"></path><path d="M315.17129,201.6887s1.9299,2.2315,5.2038,4.5457" style="fill: none; stroke: rgb(38, 50, 56); stroke-miterlimit: 10; transform-origin: 317.773px 203.962px;" id="elgqxz6vvd3v" class="animable"></path><path d="M381.39549,194.4454s7.2432-31.2495,5.1737-40.1484" style="fill: rgb(255, 255, 255); stroke: rgb(38, 50, 56); stroke-miterlimit: 10; transform-origin: 384.168px 174.371px;" id="elia5tlkkisi" class="animable"></path><path d="M388.43179,149.5371s1.2417,4.139-.6209,11.7962" style="fill: none; stroke: rgb(38, 50, 56); stroke-miterlimit: 10; transform-origin: 388.324px 155.435px;" id="elwdj83xg7e3d" class="animable"></path></g><g id="eluj7ub04cm3m" class="animable" style="transform-origin: 366.417px 103.145px;"><path d="M387.46779,88.6268s-1.5385-4.1538-1.6923-5.5385c-.1539-1.3846,2.6154,.3077,1.5384-5.0769-1.07689-5.3847-2.7692-9.0771-3.6923-7.3847-.9231,1.6923-2.1539,2.4615-2.1539,2.4615,0,0-1.2308-3.0769-4.4616-3.5385l-3.2308-.4615s0-1.5385-8.0001-1.2308c-8,.3077-13.84619,3.5385-15.5386,5.3847-1.6923,1.8461-4,6.4616-5.2308,9.8462-1.23079,3.3847-.6154,7.3847-.4615,8.0001,.1538,.6154,0,8.7693,.1538,11.077,.15391,2.3078,1.8462,5.3847,1.8462,5.3847,0,0,1.2308,4.3078,.4615,7.077-.7692,2.7693-2,5.2308-2,5.2308,0,0,4.1539,8.6155,8.7693,11.0771,4.6155,2.4615,13.6925,7.5385,13.6925,7.5385,0,0,3.2308-2.4616,4.7693-5.6924,1.5384-3.2308,2.1538-7.3847,2.1538-7.3847,0,0,5.8462-.3076,7.6924-4.1538s3.6924-11.3848,4.4616-14.7694c.7692-3.3847,1.69231-12.3078,.9231-17.8464Z" style="fill: rgb(255, 255, 255); stroke: rgb(38, 50, 56); stroke-miterlimit: 10; transform-origin: 366.006px 103.145px;" id="el8r78c7iarsf" class="animable"></path><path d="M383.62159,70.6266c-.9231,1.6924-2.1539,2.4616-2.1539,2.4616,0,0-1.23069-3.077-4.4616-3.5385l-3.2307-.4615s0-1.5385-8.0002-1.2308c-8,.3077-13.84619,3.5385-15.5385,5.3847-1.6924,1.8462-4.0001,6.4616-5.2309,9.8462-1.23079,3.3847-.6154,7.3847-.4615,8.0001,.1098,.4392,.0632,4.7134,.0833,7.9667,1.6511-.5484,3.4073-1.0371,4.0705-.8897,1.3847,.3077,2.15391,3.2308,3.6924,2.6154,1.53851-.6154,.9231-4.6155,1.0769-6.4616,.1539-1.8462,3.2308-6.9231,3.5385-8.7693s-.4615-3.077-.3077-5.077c.1539-2,2.4616-4.0001,5.3847-4.4616,2.92311-.4615,7.8463,1.2308,11.6925,1.6924,3.8461,.4615,4.1538-.6154,6.923,.6153,2.7693,1.2308,5.0771,4.7693,5.0771,4.7693-.1539-1.3846,2.6154,.3077,1.5384-5.0769-1.07689-5.3848-2.7693-9.0771-3.6923-7.3848Z" style="fill: rgb(38, 50, 56); stroke: rgb(38, 50, 56); stroke-miterlimit: 10; transform-origin: 365.909px 84.3412px;" id="elyv92nf1qsz" class="animable"></path><path d="M342.85189,91.7038s-.1538,10.4616,.6154,10.1539c.7693-.3076,3.8462-2.6154,6.0001-2.6154s12.7694,4.1539,18.9233,2.9231c6.1539-1.2307,9.5385-6.6154,10.9231-6,1.3847,.6154,2.4616,4.1539,2.6155,5.5385,.1538,1.3846,2.6154,5.6924,4.6154,4.7693s4.1539-9.5386,3.2308-13.5386c-.9231-4.0001-5.077-7.077-10.9232-8.6155s-16.3079-1.5385-22.92329,0c-6.61551,1.5385-13.07711,7.3847-13.07711,7.3847Z" style="fill: rgb(0, 165, 255); stroke: rgb(38, 50, 56); stroke-miterlimit: 10; transform-origin: 366.417px 94.8834px;" id="el0skk4ew2blv" class="animable"></path><path d="M381.92929,101.7039s-.1539,2-3.2308,2.3077" style="fill: none; stroke: rgb(38, 50, 56); stroke-miterlimit: 10; transform-origin: 380.314px 102.858px;" id="elfj1nhty1k4c" class="animable"></path><path d="M380.85229,111.2425s-1.3846-1.5385-4.1539-1.6924c-2.7692-.1538-5.5385,.3077-5.5385,.3077" style="fill: none; stroke: rgb(38, 50, 56); stroke-miterlimit: 10; transform-origin: 376.006px 110.381px;" id="el5fxi22z7ccv" class="animable"></path><path d="M374.54459,112.6271s2.4615,.3077,3.2308,.4615" style="fill: none; stroke: rgb(38, 50, 56); stroke-miterlimit: 10; transform-origin: 376.16px 112.858px;" id="eltos5l9ox8t" class="animable"></path><path d="M346.54429,107.5501s1.6923,2.1539,3.3846,2.3077c1.6924,.1539,3.077-2.6154,3.077-2.6154" style="fill: none; stroke: rgb(38, 50, 56); stroke-miterlimit: 10; transform-origin: 349.775px 108.553px;" id="el7n56c6s5rrx" class="animable"></path><path d="M372.23679,132.7811c1.5386-3.2308,2.1539-7.3847,2.1539-7.3847,0,0-3.6923-.6153-6.30769-1.5384-2.61541-.9231-5.53851-2.7693-5.53851-2.7693l4.9231,17.3848s3.2308-2.4616,4.7692-5.6924Z" style="fill: rgb(38, 50, 56); stroke: rgb(38, 50, 56); stroke-miterlimit: 10; transform-origin: 368.468px 129.781px;" id="el4ok8cf55dx5" class="animable"></path></g><g id="ellkb09c3d1f" class="animable" style="transform-origin: 346.925px 181.518px;"><path d="M389.864,173.2897s3.28539-.1369,4.65429-.8214c1.3689-.6844,2.7378,.9583,2.1902,2.1903-.54749,1.232-2.1902,2.0533-4.7911,2.3271s-4.6543,1.6427-9.1716,2.7378c-4.5174,1.0951-2.0534-3.8329-.1369-4.6542,1.9164-.8214,7.25511-1.7796,7.25511-1.7796Z" style="fill: rgb(255, 255, 255); stroke: rgb(38, 50, 56); stroke-miterlimit: 10; transform-origin: 388.511px 176.094px;" id="elgt0vccs009k" class="animable"></path><path d="M370.83629,176.8488s9.7192-6.8445,11.225-7.5289c1.5058-.6845,7.9396-1.232,10.1299-1.9165,2.1902-.6844,4.2436-.1369,3.4222,1.232-.8213,1.3689-2.1902,2.0534-3.0116,2.0534-.8213,0-3.0115,.6844-3.0115,.6844,0,0,5.2018,.2738,4.7911,1.6427s-2.464,2.1902-3.1485,2.1902c-.6844,0-3.0115,.1369-4.1067,.5476-1.0951,.4107,4.3805,.5476,4.1067,1.9165-.2737,1.3689-.9582,1.7795-2.7378,2.0533-1.7795,.2738-7.9396,.8214-7.9396,.8214,0,0,4.6543,1.5057,3.2854,2.3271-1.36889,.8213-5.8863,.5475-6.7076,.5475-.8214,0-2.4641,1.3689-5.2019,2.7378s-4.928,3.9699-10.2667,2.601c-5.33869-1.3689-12.3201,0-13.1414,.1368-.8214,.1369-16.29,2.8747-28.6101,5.4756-12.3201,2.601-19.1646,1.3689-21.3548,.4107s-1.7796-14.3734-.4107-17.7957c1.3689-3.4222,13.0046-6.2969,18.6171-5.2018s22.5868,7.1183,35.0438,7.1183,19.0277-2.0534,19.0277-2.0534Z" style="fill: rgb(255, 255, 255); stroke: rgb(38, 50, 56); stroke-miterlimit: 10; transform-origin: 346.408px 181.518px;" id="elgov10kp2iwe" class="animable"></path><path d="M389.59029,171.3732s-5.065-.2738-7.3921,.1369" style="fill: rgb(255, 255, 255); stroke: rgb(38, 50, 56); stroke-miterlimit: 10; transform-origin: 385.894px 171.397px;" id="elpph0j78xo2k" class="animable"></path><path d="M387.12619,175.7537s-5.3387-.5476-6.4338-.5476" style="fill: rgb(255, 255, 255); stroke: rgb(38, 50, 56); stroke-miterlimit: 10; transform-origin: 383.909px 175.48px;" id="eltas4teeqotn" class="animable"></path><path d="M380.55549,180.5449s-3.2853-.5476-4.1067-.5476" style="fill: rgb(255, 255, 255); stroke: rgb(38, 50, 56); stroke-miterlimit: 10; transform-origin: 378.502px 180.271px;" id="elockrh5977m" class="animable"></path></g></g></g><g id="freepik--Character_1--inject-10" class="animable" style="transform-origin: 190.908px 269.126px;"><g id="el2xll8nw0y0k" class="animable" style="transform-origin: 190.908px 269.126px;"><g id="ely9cvox33uy" class="animable" style="transform-origin: 276.772px 380.251px;"><path d="M223.67719,311.4573s15.2885,33.8299,17.89081,37.408c2.60229,3.5782,9.43339,10.4092,13.98739,13.3368s11.7104,7.1563,11.7104,7.1563c0,0,8.4574,13.3368,12.3609,18.2161,3.9034,4.8793,11.71031,11.7104,13.3368,13.9874,1.6264,2.277,5.2046,10.4092,5.2046,10.4092,0,0-.3253,16.5896-.9759,21.4689-.6506,4.8794-6.5058,14.3127-4.8793,16.5897,1.6264,2.277,10.4092,2.6023,15.2885,.6506,4.8793-1.9518,12.03561-9.1081,13.6621-13.9874,1.6264-4.8793,2.277-9.108,3.5781-12.0356,1.3012-2.9276,7.8069-14.6379,5.8552-19.192-1.9517-4.554-5.5299-7.4816-7.1563-8.1322-1.62649-.6505-5.8552-3.2528-6.8311-4.554-.9758-1.3011-4.2287-8.4575-10.0839-15.9391-5.8551-7.4816-14.3126-21.7942-20.1678-26.9988-5.8552-5.2046-10.4092-7.4816-14.3126-13.6621-3.9035-6.1804-7.8069-11.385-8.4575-12.6862-.65059-1.3011-3.2529-12.6862-3.2529-12.6862l-36.7575,.6506Z" style="fill: rgb(163, 163, 163); stroke: rgb(38, 50, 56); stroke-miterlimit: 10; transform-origin: 277.368px 381.384px;" id="elqsy85zail1p" class="animable"></path><polygon points="245.22349 318.6455 227.92669 320.5889 222.485 308.5394 245.22349 318.6455" style="fill: rgb(38, 50, 56); stroke: rgb(38, 50, 56); stroke-miterlimit: 10; transform-origin: 233.854px 314.564px;" id="el1423eusfgbh" class="animable"></polygon><path d="M280.31179,356.5844c1.763-2.5979,2.7746-6.0232,3.3569-9.1039-4.5466-3.6956-8.2636-6.1397-11.5236-11.3014-1.96-3.1034-3.9194-5.9597-5.4676-8.2003-1.5004,2.3703-4.0518,5.7315-8.18449,9.405-5.09491,4.5288-14.59171,4.834-20.63941,4.49,1.7141,3.4902,3.086,6.1274,3.7145,6.9915,2.6022,3.5782,9.4333,10.4092,13.9873,13.3368,2.689,1.7286,6.276,3.9051,8.77061,5.4027,5.56719-1.5657,12.72739-6.2185,15.98579-11.0204Z" style="fill: rgb(38, 50, 56); stroke: rgb(38, 50, 56); stroke-miterlimit: 10; transform-origin: 260.761px 347.792px;" id="el2hd2k15zxn3" class="animable"></path><path d="M330.69679,405.4653c-1.9517-4.554-5.5299-7.4816-7.1563-8.1322-1.3867-.5547-4.65849-2.5258-6.1997-3.9019-.0023,.6093,.0726,1.2183,.2813,1.7726,.9126,2.4246,2.8365,7.2002,.6546,12.6549s-10.9095,3.7092-14.4005,3.0546c-3.491-.6545-5.70819,1.0578-5.70819,1.0578,0,0-.32521,16.5896-.97581,21.4689s-6.5057,14.3127-4.8793,16.5897,10.40911,2.6023,15.2885,.6505c4.8793-1.9517,12.03561-9.108,13.662-13.9873,1.6265-4.8793,2.2771-9.1081,3.5782-12.0356,1.3012-2.9276,7.8069-14.638,5.8552-19.192Z" style="fill: rgb(38, 50, 56); stroke: rgb(38, 50, 56); stroke-miterlimit: 10; transform-origin: 311.544px 422.697px;" id="el27nj934sg7p" class="animable"></path><path d="M330.69679,405.4653c-.5796-1.3522-1.3083-2.541-2.081-3.5894-1.139,3.7735-3.0064,10.6056-4.6662,17.5468-2.4001,10.0367-2.6862,17.2702-9.8185,25.3098-7.1324,8.0397-21.8182,5.2972-21.8182,5.2972,1.6264,2.277,10.40911,2.6023,15.2885,.6505,4.8793-1.9517,12.03561-9.108,13.662-13.9873,1.6265-4.8793,2.2771-9.1081,3.5782-12.0356,1.3012-2.9276,7.8069-14.638,5.8552-19.192Z" style="fill: rgb(255, 255, 255); stroke: rgb(38, 50, 56); stroke-miterlimit: 10; transform-origin: 311.686px 426.919px;" id="elidoc42h9sen" class="animable"></path></g><g id="ela4zvvophv8" class="animable" style="transform-origin: 157.588px 334.059px;"><path d="M119.8736,271.6533s-6.4063,13.675-11.6546,28.1704c-5.2483,14.4953-5.2483,21.4931-1.7494,24.992,3.4989,3.4988,10.4966,6.9977,16.7446,4.4985,6.248-2.4992,53.4828-37.9878,53.4828-37.9878,0,0-13.2457-11.9961-28.2409-16.7446s-24.4921-3.9987-24.4921-3.9987l-4.0904,1.0702Z" style="fill: rgb(163, 163, 163); stroke: rgb(38, 50, 56); stroke-miterlimit: 10; transform-origin: 140.364px 300.35px;" id="elxur9xrqfzg9" class="animable"></path><polygon points="159.8427 283.3445 163.6182 301.3229 174.0457 292.6932 159.8427 283.3445" style="fill: rgb(38, 50, 56); stroke: rgb(38, 50, 56); stroke-miterlimit: 10; transform-origin: 166.944px 292.334px;" id="elu2oio5vkwkq" class="animable"></polygon><path d="M110.2184,294.3254s-.4955,.5468-1.2677,1.4483c-2.1808,2.546-6.5681,7.9215-8.2293,11.7975-2.2493,5.2483-3.7488,16.2448-3.9987,20.2435s-1.2496,8.7472-1.9993,12.2461c-.7498,3.4988-6.498,27.4911-6.498,38.9874s.25,18.2442,1.7495,22.4928,1.7494,6.248,1.7494,6.248l-5.7481,12.7459s-11.2464,4.2486-16.9946,5.9981c-5.7481,1.7494-12.9958,1.7494-16.9945,4.9984-3.9987,3.2489,2.7491,8.2473,5.9981,9.9968,3.2489,1.7494,9.4969,3.4988,15.495,4.4985,5.998,.9997,15.9948,.9997,16.9945,.9997s3.4989,0,5.2483,.7498c1.7495,.7497,8.4973,1.2496,11.4963-3.249,2.9991-4.4986,2.2493-17.2445,2.2493-21.9929s5.9981-44.2358,7.2477-46.735,7.9974-9.9968,8.4973-23.7424c.4998-13.7456,1.4995-22.2429,1.4995-22.2429l2.4992-3.7487,6.4979-4.2487s.2499-7.7475-10.4966-16.2448c-10.7466-8.4972-14.9952-11.2464-14.9952-11.2464Z" style="fill: rgb(163, 163, 163); stroke: rgb(38, 50, 56); stroke-miterlimit: 10; transform-origin: 93.2336px 371.297px;" id="eliefmtvqctf8" class="animable"></path><path d="M125.2136,305.5718c-10.7466-8.4973-14.9952-11.2464-14.9952-11.2464,0,0-.4956,.5468-1.2677,1.4482-2.1807,2.5461-6.5681,7.9216-8.2293,11.7976-2.2492,5.2483-3.7487,16.2448-3.9987,20.2435-.1272,2.0363-.4496,4.266-.8338,6.4272,2.8907,3.9055,8.4497,9.3177,17.0786,9.3177,5.565,0,9.8095-1.7005,12.8799-3.6983,.4365-6.3813,.8657-10.0473,.8657-10.0473l2.4992-3.7488,6.4979-4.2486s.2499-7.7475-10.4966-16.2448Z" style="fill: rgb(38, 50, 56); stroke: rgb(38, 50, 56); stroke-miterlimit: 10; transform-origin: 115.8px 318.943px;" id="el8avfk084jkc" class="animable"></path><g id="el9hu96nk349" class="animable" style="transform-origin: 80.1535px 433.419px;"><path d="M51.9871,431.5314c-3.9988,3.2489,2.7491,8.2473,5.9981,9.9967,3.2489,1.7495,9.4969,3.4989,15.495,4.4986s15.9948,.9997,16.9945,.9997,3.4989,0,5.2483,.7497c1.7495,.7498,8.4973,1.2497,11.4964-3.2489,2.1336-3.2005,2.3683-10.5663,2.327-16.2658-5.2299,.4382-12.0739-.2289-12.0739-.2289,0,0,.9997-3.7488-1.9994-7.7475-2.999-3.9987-9.497,.2499-9.497,.2499,0,0-11.2463,4.2486-16.9945,5.9981-5.7481,1.7494-12.9958,1.7494-16.9945,4.9984Z" style="fill: rgb(38, 50, 56); stroke: rgb(38, 50, 56); stroke-miterlimit: 10; transform-origin: 80.1535px 433.419px;" id="elnzd7b5w8e4" class="animable"></path><path d="M57.9852,441.5281c3.2489,1.7495,9.4969,3.4989,15.495,4.4986s15.9948,.9997,16.9945,.9997,3.4989,0,5.2483,.7497c1.7454,.748,8.4645,1.2453,11.4739-3.2197-6.0222,1.7223-10.9319,.1271-15.8363-.042-6.3275-.2182-17.6733,.2181-29.4554-4.3638-11.7822-4.5819-9.9181-8.6192-9.9181-8.6192-3.9988,3.2489,2.7491,8.2473,5.9981,9.9967Z" style="fill: rgb(255, 255, 255); stroke: rgb(38, 50, 56); stroke-miterlimit: 10; transform-origin: 78.9767px 439.899px;" id="elry9fionxtvo" class="animable"></path></g><path d="M157.6186,223.3191s-2.5619,2.3911-2.5619,4.4406-.8539,4.099-.8539,4.099c0,0-4.099,1.8787-4.6114,2.5619-.5124,.6832-2.2203,2.7327-2.5619,3.245-.3416,.5124-1.8787,3.0743-2.3911,3.7575-.5124,.6831-3.4158,3.4158-3.7574,3.9282-.3416,.5124-1.5371,2.3911-2.5619,3.4158-1.0247,1.0248-7.6856,7.5149-9.3935,10.4183-1.708,2.9035-9.052,12.4679-9.052,12.4679,0,0,18.8356,3.1784,26.8331,5.9275,7.9974,2.7491,27.741,19.7437,27.741,19.7437l18.9939-11.7462,5.9981,15.7449s16.7446,9.9968,24.2422,12.7459c7.4976,2.7491,19.2439,6.7478,27.991,4.7485,8.7472-1.9994,12.7459-5.2483,12.7459-5.2483,0,0-3.2489-33.4893-6.2479-44.2358-2.9991-10.7466-8.9972-28.4909-12.99589-33.9891-3.99871-5.4982-16.49471-15.495-16.49471-15.495,0,0-21.743,10.4966-38.9875,10.2467-17.2444-.2499-32.0742-6.777-32.0742-6.777Z" style="fill: rgb(255, 255, 255); stroke: rgb(38, 50, 56); stroke-miterlimit: 10; transform-origin: 192.146px 269.603px;" id="eljmrna7yulg" class="animable"></path><path d="M192.192,266.5844s38.73759-.25,50.23389-2.4992" style="fill: none; stroke: rgb(38, 50, 56); stroke-miterlimit: 10; transform-origin: 217.309px 265.335px;" id="el0207zqobp2k2" class="animable"></path><path d="M248.67389,268.3338s-18.744,3.249-31.48989,2.999" style="fill: none; stroke: rgb(38, 50, 56); stroke-miterlimit: 10; transform-origin: 232.929px 269.84px;" id="el4y3t9vkyyx2" class="animable"></path><path d="M157.511,263.596c9.2966,4.8333,26.959,14.0774,31.682,16.9839" style="fill: none; stroke: rgb(38, 50, 56); stroke-miterlimit: 10; transform-origin: 173.352px 272.088px;" id="elww60ot432pf" class="animable"></path><path d="M151.7051,260.5863s1.1587,.5981,3.0751,1.5918" style="fill: none; stroke: rgb(38, 50, 56); stroke-miterlimit: 10; transform-origin: 153.243px 261.382px;" id="el5drbeo564jd" class="animable"></path><path d="M211.12049,294.9407c1.2971,.6975,2.5054,1.3374,3.5643,1.8839" style="fill: none; stroke: rgb(38, 50, 56); stroke-miterlimit: 10; transform-origin: 212.903px 295.883px;" id="el6jbir0ij8ok" class="animable"></path><path d="M191.1924,283.8288s9.275,5.3,17.0904,9.5723" style="fill: none; stroke: rgb(38, 50, 56); stroke-miterlimit: 10; transform-origin: 199.738px 288.615px;" id="elz78bqjllvc" class="animable"></path><path d="M168.6996,243.8417s17.4944,10.2467,24.992,11.4963c7.4976,1.2496,22.9926-4.9984,22.9926-4.9984" style="fill: none; stroke: rgb(38, 50, 56); stroke-miterlimit: 10; transform-origin: 192.692px 249.672px;" id="el0e5z2ornc1j" class="animable"></path></g><g id="el95y018f4sa9" class="animable" style="transform-origin: 123.384px 195.906px;"><path d="M143.9077,165.2445s-7.6443,8.3656-16.5868,15.5772c-8.9425,7.2117-19.6158,16.1542-19.6158,16.1542,0,0-13.7021,3.8943-15.4329,5.1924s-5.9136,4.7597-6.4906,6.4905c-.5769,1.7308-4.6154,8.9425-3.8943,10.6733,.7212,1.7308,2.5962,.4327,2.5962,.4327,0,0-.5769,2.0192,1.4424,2.4519,2.0192,.4327,4.9039-5.6251,5.1924-6.0578s1.1539-1.1538,1.1539-1.1538c0,0-2.7405,6.202-2.8847,8.077-.1442,1.8751,.4327,4.327,1.875,3.4616,1.4424-.8654,2.1635-3.3173,2.3078-3.75,.1442-.4327,.7211-1.8751,.7211-2.452s.4327-1.2981,.4327-1.7308-.4327,3.6058-.1442,5.6251,1.875,2.452,2.1635,1.0096c.2885-1.4423,.1442-5.7693,.1442-5.7693l2.3078-3.4616s6.3462-2.0193,10.0963-4.4712c3.7501-2.452,5.3366-5.3367,5.3366-5.3367,0,0,22.7889-8.7982,36.0584-17.4522,13.2695-8.654,14.2791-16.2984,14.2791-16.2984,0,0-4.6155-6.4905-8.2213-7.0674-3.6058-.577-12.8368-.1443-12.8368-.1443Z" style="fill: rgb(163, 163, 163); stroke: rgb(38, 50, 56); stroke-miterlimit: 10; transform-origin: 123.384px 195.906px;" id="ely7rm1opwc2" class="animable"></path><path d="M97.6088,202.1683s-9.0867,2.3077-9.9521,2.1635-2.3078-.1442-1.8751,1.5866,2.7405,2.1635,3.7501,2.1635c1.0097,0,6.3463-.8654,7.0675-.8654,.7211,0,5.9135,1.7308,8.3655,1.5865,2.452-.1442,4.4712-1.2981,4.4712-3.75" style="fill: rgb(163, 163, 163); stroke: rgb(38, 50, 56); stroke-miterlimit: 10; transform-origin: 97.5692px 205.49px;" id="elp1ujuvz5n5l" class="animable"></path><path d="M84.4835,219.7648s2.0193-3.3174,2.5962-4.1828c.577-.8654,3.4617-4.1828,3.4617-4.1828" style="fill: rgb(38, 50, 56); stroke: rgb(38, 50, 56); stroke-miterlimit: 10; transform-origin: 87.5124px 215.582px;" id="eli28z1e433hq" class="animable"></path><line x1="94.7241" y1="218.6109" x2="95.878" y2="215.582" style="fill: rgb(163, 163, 163); stroke: rgb(38, 50, 56); stroke-miterlimit: 10; transform-origin: 95.301px 217.096px;" id="el3x4d4333558" class="animable"></line><path d="M89.676,209.9569s2.4519,3.0289,5.1924,4.0385" style="fill: rgb(38, 50, 56); stroke: rgb(38, 50, 56); stroke-miterlimit: 10; transform-origin: 92.2722px 211.976px;" id="eletx18d2m26" class="animable"></path></g><path d="M133.1954,151.5865c.5405,3.8916,.4987,16.2556,4.7821,25.7896,5.2946,11.7846,13.4926,22.0321,13.6634,23.0569,.1708,1.0247,4.953,14.1757,5.1238,15.0297,.1707,.8539-.6832,4.953,.6831,10.0767,1.3664,5.1238,8.8812,17.0792,23.9109,19.8119,15.0297,2.7327,26.9851,2.7327,32.9629,.1708,5.9777-2.5619,10.0767-5.807,11.443-9.906,1.36641-4.099,9.9135-4.6073,9.9135-11.2682s-7.1808-25.2812-7.3516-29.3803c-.1708-4.099-.3416-6.3193-.3416-6.3193,0,0-3.4158-24.2524-9.2228-38.4282-5.8069-14.1757-15.3712-21.1782-28.693-27.3267s-18.9579-8.198-20.495-8.7104c-1.5372-.5123-5.807-4.4406-12.2971-5.9777-6.4901-1.5371-10.9307-1.5371-13.3217-.6832,0,0-5.6362,2.9035-8.0273,9.3936-2.3911,6.4901-2.7326,34.6708-2.7326,34.6708Z" style="fill: rgb(0, 165, 255); stroke: rgb(38, 50, 56); stroke-miterlimit: 10; transform-origin: 184.437px 177.186px;" id="el07jbb1pns41i" class="animable"></path><path d="M144.4676,150.2201s7.3441,8.5396,9.3936,7.5149c2.0495-1.0248,9.3935-12.1262,11.2723-20.495,1.8787-8.3689,.3401-14.006-3.4159-17.0792-3.756-3.0733-5.6361-3.4159-5.6361-3.4159l-11.6139,33.4752Z" style="fill: rgb(163, 163, 163); stroke: rgb(38, 50, 56); stroke-miterlimit: 10; transform-origin: 155.201px 137.283px;" id="elbqse1r1fbxq" class="animable"></path><g id="elzv3gkftm4qi" class="animable" style="transform-origin: 132.766px 122.287px;"><path d="M114.1063,92.0273s-8.2584,7.4041-9.1127,17.656c-.8544,10.2519,3.9868,21.9277,7.6889,24.7754,3.702,2.8478,3.1325,5.9803,4.5564,10.2519,1.4238,4.2716,6.5498,7.4041,10.8214,9.9671s9.1128,4.8412,12.8148,2.8478c3.7021-1.9935,5.9803-5.126,8.2585-9.6824s5.126-13.6692,5.126-13.6692c0,0,8.2584-5.1259,5.9802-11.1062l-2.2782-5.9802s-1.4239-7.6889-6.8346-17.6561c-5.4107-9.9671-21.0733-19.6494-37.0207-7.4041Z" style="fill: rgb(163, 163, 163); stroke: rgb(38, 50, 56); stroke-miterlimit: 10; transform-origin: 132.766px 122.287px;" id="eldi312zd887a" class="animable"></path><path d="M151.127,99.4315c-5.4107-9.9672-21.0733-19.6495-37.0207-7.4042,0,0-8.2584,7.4042-9.1128,17.656-.4794,5.7536,.8355,11.9547,2.7357,16.793l.0182,.0037v-6.1485s6.8316,2.9035,12.4677,1.5372c5.6362-1.3664,13.3218-6.4902,15.2005-7.5149,1.8788-1.0248,3.0743,1.3664,3.0743,3.5866,0,2.2204-.1708,4.7822,2.0495,5.9778,2.2203,1.1955,5.6361,1.0247,5.6361,1.0247,0,0,.6832,2.7327,1.3664,2.9035,.6831,.1708,2.5619,1.1955,3.0742,.1708,.5124-1.0248,.3416-2.7327,.5124-3.5867,.1708-.8539,2.9035-5.2945,7.3441-5.1237,.1174,.0045,.2258,.009,.3396,.0135l-.8506-2.2328s-1.4239-7.6889-6.8346-17.656Z" style="fill: rgb(38, 50, 56); stroke: rgb(38, 50, 56); stroke-miterlimit: 10; transform-origin: 131.853px 107.378px;" id="eli803pzmaw4" class="animable"></path><path d="M109.4553,130.5791s4.6114,8.8811,14.5173,7.0024,24.9356-14.5173,27.6683-18.9579,2.9035-8.5396,4.099-8.5396,2.7327,1.5372,2.9035,3.4159,1.0248,5.4652-.1708,5.8069c-1.1956,.3416-7.1733,12.8094-10.5891,18.4455-3.4159,5.6362-7.8565,9.7352-13.6634,10.4183-5.8069,.6832-9.2228-2.5618-10.2475-1.8787-1.0248,.6832-1.7079,2.3911-3.7574,2.3911s-5.1059-5.246-6.3193-9.7351c-1.2134-4.4892-4.4406-8.3688-4.4406-8.3688Z" style="fill: rgb(38, 50, 56); stroke: rgb(38, 50, 56); stroke-miterlimit: 10; transform-origin: 134.277px 129.384px;" id="el2kb54duh1wa" class="animable"></path><path d="M123.8018,147.9998s-.5124,3.9283,.6832,4.6114c1.1955,.6832,5.1237,1.3664,6.6609-1.1955,0,0,.056,.517,.1836,1.4357" style="fill: none; stroke: rgb(38, 50, 56); stroke-miterlimit: 10; transform-origin: 127.511px 150.619px;" id="el041xn287q8cp" class="animable"></path><path d="M132.1706,155.0023s1.8787-.8539,4.4406-.8539" style="fill: none; stroke: rgb(38, 50, 56); stroke-miterlimit: 10; transform-origin: 134.391px 154.575px;" id="ellr2aqe6ycd" class="animable"></path></g><g id="ellc07truh06h" class="animable" style="transform-origin: 230.783px 222.391px;"><path d="M232.891,188.7541l3.73909,5.8165s-3.5314,15.1644-7.686,29.4978-9.7634,25.9663-9.7634,25.9663c0,0-8.7839,.6302-10.5815,1.4599-1.7976,.8296-2.7655,3.8717-3.1803,5.2544-.4148,1.3828-1.93589,3.3186-1.3828,4.5631,.5531,1.2445,1.1062,1.9359,1.1062,1.9359,0,0-.5531,4.4248,.2766,5.3927,.8296,.9679,1.2445,1.3827,1.9358,1.2445,.6914-.1383,1.65931-.1383,1.65931-.1383,0,0,1.10619,2.4889,2.35069,2.3507,1.2445-.1383,10.7855-1.3828,13.4127-3.0421s4.9779-7.1903,6.36061-10.0941c1.38279-2.9037,2.62729-7.6051,2.62729-7.6051,0,0,14.7954-28.3464,17.6992-34.9836,2.9037-6.6372,5.80751-18.114,6.0841-22.8154,.2765-4.7013,.1382-8.7113-2.489-11.2002-2.6272-2.489-11.3385-9.6793-11.3385-9.6793l-10.83009,16.0763Z" style="fill: rgb(163, 163, 163); stroke: rgb(38, 50, 56); stroke-miterlimit: 10; transform-origin: 230.783px 222.391px;" id="el2k2rtdgf9lq" class="animable"></path><path d="M205.14229,263.248s1.9359-5.3928,4.5631-8.4348" style="fill: none; stroke: rgb(38, 50, 56); stroke-miterlimit: 10; transform-origin: 207.424px 259.031px;" id="eljmhh3ml4fpi" class="animable"></path></g><path d="M184.9453,152.782s.6832,9.3936,3.4159,12.297c2.7326,2.9035,28.8638,19.1288,31.9381,21.349,3.0742,2.2203,9.7351,8.0273,9.7351,8.0273,0,0,11.2723-6.1485,12.63861-10.9307,1.36639-4.7822,2.73269-11.6139,2.73269-11.6139,0,0-18.7871-21.0074-23.9109-25.7896-5.1237-4.7821-11.2723-11.443-16.56679-13.1509-5.29461-1.708-9.5644,0-9.5644,0" style="fill: rgb(0, 165, 255); stroke: rgb(38, 50, 56); stroke-miterlimit: 10; transform-origin: 215.175px 163.333px;" id="el9k5o19nain4" class="animable"></path><path d="M217.21019,207.8496c.0082,2.1152-.0041,4.0588-.04619,5.6598" style="fill: none; stroke: rgb(38, 50, 56); stroke-miterlimit: 10; transform-origin: 217.188px 210.679px;" id="elovs1h9meqk" class="animable"></path><path d="M216.68739,184.4411s.3312,9.2738,.46761,18.0517" style="fill: none; stroke: rgb(38, 50, 56); stroke-miterlimit: 10; transform-origin: 216.921px 193.467px;" id="ellnha2ks63v" class="animable"></path><path d="M213.11349,182.2968s-4.05049,17.3933-4.5271,18.8229" style="fill: none; stroke: rgb(38, 50, 56); stroke-miterlimit: 10; transform-origin: 210.85px 191.708px;" id="elmo06hfbx7b" class="animable"></path><path d="M150.174,190.8079c6.376,8.9689,16.651,22.8702,21.2432,26.0372" style="fill: none; stroke: rgb(38, 50, 56); stroke-miterlimit: 10; transform-origin: 160.796px 203.827px;" id="elfvgfyyeycu" class="animable"></path><path d="M144.7316,183.0116s1.4164,2.0819,3.6235,5.2228" style="fill: none; stroke: rgb(38, 50, 56); stroke-miterlimit: 10; transform-origin: 146.543px 185.623px;" id="eloomzg2ycwq" class="animable"></path><line x1="153.7856" y1="200.8814" x2="163.3162" y2="213.0329" style="fill: none; stroke: rgb(38, 50, 56); stroke-miterlimit: 10; transform-origin: 158.551px 206.957px;" id="elcw49pvx60c" class="animable"></line><path d="M167.8432,122.0158s3.8122,6.4332,3.8122,12.8663-1.9061,13.5811-1.9061,13.5811" style="fill: none; stroke: rgb(38, 50, 56); stroke-miterlimit: 10; transform-origin: 169.749px 135.239px;" id="eljdiuhkv6e1" class="animable"></path><path d="M168.558,129.8786s.9531,10.2453-1.4296,18.1081" style="fill: none; stroke: rgb(38, 50, 56); stroke-miterlimit: 10; transform-origin: 167.937px 138.933px;" id="elsh6x670x25a" class="animable"></path></g></g><g id="freepik--Soccer_ball--inject-10" class="animable" style="transform-origin: 88.1508px 433.146px;"><g id="eloma8ahn2lwk" class="animable" style="transform-origin: 88.1508px 433.146px;"><g id="elwipdye052kg"><circle cx="88.15077" cy="433.14637" r="26.00886" style="fill: rgb(255, 255, 255); stroke: rgb(38, 50, 56); stroke-miterlimit: 10; transform-origin: 88.1508px 433.146px; transform: rotate(-45deg);" class="animable"></circle></g><polygon points="86.6007 418.7094 77.5992 421.8463 75.417 432.3481 68.734 437.258 72.5529 446.6686 81.9635 448.1689 89.3284 453.3516 99.1482 450.3511 101.3304 440.1221 107.8769 434.6666 103.7853 424.8468 94.3747 424.8468 86.6007 418.7094" style="fill: rgb(0, 165, 255); stroke: rgb(38, 50, 56); stroke-miterlimit: 10; transform-origin: 88.3055px 436.031px;" id="elcffg15yituv" class="animable"></polygon><polyline points="79.1411 435.9803 83.367 438.7975 93.1269 435.4772 94.0324 427.4278" style="fill: none; stroke: rgb(38, 50, 56); stroke-miterlimit: 10; transform-origin: 86.5868px 433.113px;" id="el888pxhebmud" class="animable"></polyline><line x1="81.9583" y1="446.5451" x2="83.6688" y2="439.5019" style="fill: none; stroke: rgb(38, 50, 56); stroke-miterlimit: 10; transform-origin: 82.8135px 443.023px;" id="elkxstue4xqyh" class="animable"></line><line x1="94.4349" y1="436.4833" x2="99.8682" y2="439.5019" style="fill: none; stroke: rgb(38, 50, 56); stroke-miterlimit: 10; transform-origin: 97.1516px 437.993px;" id="elt4ubzyqfjzk" class="animable"></line><line x1="77.5992" y1="421.8463" x2="73.3052" y2="418.2716" style="fill: none; stroke: rgb(38, 50, 56); stroke-miterlimit: 10; transform-origin: 75.4522px 420.059px;" id="el8fhnhucj42v" class="animable"></line><line x1="89.3284" y1="453.3516" x2="88.2972" y2="457.7136" style="fill: none; stroke: rgb(38, 50, 56); stroke-miterlimit: 10; transform-origin: 88.8128px 455.533px;" id="elum9n1uuqy2q" class="animable"></line><line x1="99.7676" y1="450.5698" x2="103.088" y2="452.2803" style="fill: none; stroke: rgb(38, 50, 56); stroke-miterlimit: 10; transform-origin: 101.428px 451.425px;" id="elrxssfnjhpap" class="animable"></line><line x1="72.5529" y1="446.6686" x2="71.2929" y2="451.0729" style="fill: none; stroke: rgb(38, 50, 56); stroke-miterlimit: 10; transform-origin: 71.9229px 448.871px;" id="elvqhtezht35" class="animable"></line><line x1="68.734" y1="437.258" x2="65.4571" y2="435.3766" style="fill: none; transform-origin: 67.0956px 436.317px;" id="ele4ky9etra4" class="animable"></line><line x1="107.8769" y1="434.6666" x2="112.4454" y2="436.2821" style="fill: none; stroke: rgb(38, 50, 56); stroke-miterlimit: 10; transform-origin: 110.161px 435.474px;" id="el7mnn0hsk5g4" class="animable"></line><line x1="104.0941" y1="424.1074" x2="104.6978" y2="420.284" style="fill: none; stroke: rgb(38, 50, 56); stroke-miterlimit: 10; transform-origin: 104.396px 422.196px;" id="el7qlcpfpc1qq" class="animable"></line></g></g><defs>     <filter id="active" height="200%">         <feMorphology in="SourceAlpha" result="DILATED" operator="dilate" radius="2"></feMorphology>                <feFlood flood-color="#32DFEC" flood-opacity="1" result="PINK"></feFlood>        <feComposite in="PINK" in2="DILATED" operator="in" result="OUTLINE"></feComposite>        <feMerge>            <feMergeNode in="OUTLINE"></feMergeNode>            <feMergeNode in="SourceGraphic"></feMergeNode>        </feMerge>    </filter>    <filter id="hover" height="200%">        <feMorphology in="SourceAlpha" result="DILATED" operator="dilate" radius="2"></feMorphology>                <feFlood flood-color="#ff0000" flood-opacity="0.5" result="PINK"></feFlood>        <feComposite in="PINK" in2="DILATED" operator="in" result="OUTLINE"></feComposite>        <feMerge>            <feMergeNode in="OUTLINE"></feMergeNode>            <feMergeNode in="SourceGraphic"></feMergeNode>        </feMerge>            <feColorMatrix type="matrix" values="0   0   0   0   0                0   1   0   0   0                0   0   0   0   0                0   0   0   1   0 "></feColorMatrix>    </filter></defs></svg>