<svg width="25" height="38" viewBox="0 0 25 38" fill="none" xmlns="http://www.w3.org/2000/svg">
<path d="M10.0303 37.876V33.5069H5.66114V29.1378H10.0303V24.5501C7.15394 24.0404 4.79642 22.6659 2.95773 20.4268C1.11905 18.1876 0.199707 15.5934 0.199707 12.6442C0.199707 9.33094 1.37392 6.5183 3.72233 4.20629C6.07075 1.89429 8.9016 0.738281 12.2149 0.738281C15.5281 0.738281 18.359 1.89429 20.7074 4.20629C23.0558 6.5183 24.23 9.33094 24.23 12.6442C24.23 15.5934 23.3107 18.1876 21.472 20.4268C19.6333 22.6659 17.2758 24.0404 14.3994 24.5501V29.1378H18.7686V33.5069H14.3994V37.876H10.0303ZM12.2149 20.3995C14.3266 20.3995 16.1289 19.6531 17.6217 18.1603C19.1145 16.6675 19.8609 14.8652 19.8609 12.7534C19.8609 10.6417 19.1145 8.83941 17.6217 7.34662C16.1289 5.85383 14.3266 5.10743 12.2149 5.10743C10.1031 5.10743 8.30084 5.85383 6.80805 7.34662C5.31525 8.83941 4.56886 10.6417 4.56886 12.7534C4.56886 14.8652 5.31525 16.6675 6.80805 18.1603C8.30084 19.6531 10.1031 20.3995 12.2149 20.3995Z" fill="#FF32AA"/>
</svg>
