<svg width="158" height="44" viewBox="0 0 158 44" fill="none" xmlns="http://www.w3.org/2000/svg">
<path d="M63.5689 11.3636H67.6726V25.0554C67.6726 26.321 67.3881 27.4205 66.8192 28.3537C66.2567 29.2869 65.4737 30.006 64.4702 30.511C63.4666 31.016 62.3001 31.2685 60.9705 31.2685C59.788 31.2685 58.7141 31.0607 57.7489 30.6452C56.7901 30.2234 56.0295 29.5842 55.467 28.7276C54.9045 27.8647 54.6264 26.7812 54.6328 25.4773H58.7653C58.7781 25.995 58.8835 26.4393 59.0817 26.81C59.2862 27.1744 59.5643 27.4556 59.9158 27.6538C60.2738 27.8455 60.6957 27.9414 61.1815 27.9414C61.6928 27.9414 62.1243 27.8327 62.4759 27.6154C62.8338 27.3917 63.1055 27.0657 63.2908 26.6374C63.4762 26.2092 63.5689 25.6818 63.5689 25.0554V11.3636ZM75.2567 11.3636V31H71.1051V11.3636H75.2567ZM82.8241 11.3636V31H78.6725V11.3636H82.8241ZM86.2399 31V11.3636H99.2413V14.7866H90.3915V19.4656H98.3784V22.8885H90.3915V31H86.2399ZM112.686 17.011C112.609 16.2376 112.28 15.6367 111.699 15.2085C111.117 14.7802 110.328 14.5661 109.33 14.5661C108.653 14.5661 108.081 14.6619 107.614 14.8537C107.147 15.0391 106.79 15.2979 106.54 15.6303C106.297 15.9627 106.176 16.3398 106.176 16.7617C106.163 17.1133 106.237 17.4201 106.396 17.6822C106.563 17.9442 106.79 18.1712 107.077 18.3629C107.365 18.5483 107.697 18.7113 108.074 18.8519C108.451 18.9862 108.854 19.1012 109.282 19.1971L111.047 19.619C111.903 19.8107 112.689 20.0664 113.405 20.386C114.121 20.7056 114.741 21.0987 115.265 21.5653C115.79 22.032 116.195 22.5817 116.483 23.2145C116.777 23.8473 116.927 24.5728 116.934 25.391C116.927 26.5927 116.62 27.6346 116.013 28.5167C115.412 29.3924 114.543 30.0732 113.405 30.5589C112.274 31.0384 110.909 31.2781 109.311 31.2781C107.726 31.2781 106.345 31.0352 105.169 30.5494C103.999 30.0636 103.085 29.3445 102.427 28.392C101.775 27.4332 101.433 26.2475 101.401 24.8349H105.418C105.463 25.4933 105.652 26.043 105.984 26.484C106.323 26.9187 106.774 27.2479 107.336 27.4716C107.905 27.6889 108.547 27.7976 109.263 27.7976C109.966 27.7976 110.577 27.6953 111.095 27.4908C111.619 27.2862 112.025 27.0018 112.312 26.6374C112.6 26.2731 112.744 25.8544 112.744 25.3814C112.744 24.9403 112.613 24.5696 112.351 24.2692C112.095 23.9687 111.718 23.7131 111.219 23.5021C110.727 23.2912 110.123 23.0994 109.407 22.9268L107.269 22.3899C105.613 21.9872 104.306 21.3576 103.347 20.5011C102.389 19.6445 101.912 18.4908 101.919 17.0398C101.912 15.8509 102.229 14.8121 102.868 13.9237C103.514 13.0352 104.399 12.3416 105.524 11.843C106.649 11.3445 107.927 11.0952 109.359 11.0952C110.816 11.0952 112.089 11.3445 113.175 11.843C114.268 12.3416 115.118 13.0352 115.726 13.9237C116.333 14.8121 116.646 15.8413 116.665 17.011H112.686ZM119.611 31V28.0085L126.601 21.5366C127.195 20.9613 127.694 20.4435 128.097 19.9833C128.506 19.5231 128.816 19.0724 129.027 18.6314C129.238 18.1839 129.343 17.7013 129.343 17.1836C129.343 16.6083 129.212 16.1129 128.95 15.6974C128.688 15.2756 128.33 14.9528 127.876 14.729C127.422 14.4989 126.908 14.3839 126.332 14.3839C125.732 14.3839 125.207 14.5053 124.76 14.7482C124.313 14.9911 123.967 15.3395 123.724 15.7933C123.482 16.2472 123.36 16.7873 123.36 17.4137H119.419C119.419 16.1289 119.71 15.0135 120.292 14.0675C120.874 13.1214 121.689 12.3896 122.737 11.8718C123.785 11.354 124.993 11.0952 126.361 11.0952C127.767 11.0952 128.991 11.3445 130.033 11.843C131.082 12.3352 131.897 13.0192 132.478 13.8949C133.06 14.7706 133.351 15.7741 133.351 16.9055C133.351 17.647 133.204 18.3789 132.91 19.1012C132.622 19.8235 132.108 20.6257 131.366 21.5078C130.625 22.3835 129.58 23.435 128.231 24.6623L125.364 27.4716V27.6058H133.61V31H119.611ZM135.899 27.5483V24.2788L144.097 11.3636H146.916V15.8892H145.247L140.079 24.0678V24.2212H151.729V27.5483H135.899ZM145.324 31V26.5511L145.401 25.1033V11.3636H149.293V31H145.324Z" fill="#00AB11"/>
<rect x="1" y="2" width="40" height="40" fill="#00AB11"/>
<path d="M3.17361 38.9534L1.58745 42.8944L0.689679 43.138L0.165547 40.7786L0.302277 38.8422C-0.518104 35.9263 0.598526 36.0821 0.598526 36.0821H3.08501C3.08501 36.0821 3.08629 36.1575 3.08856 36.2835C3.09987 36.9008 3.13633 38.8424 3.17361 38.9534Z" fill="#3C3D3C"/>
<g opacity="0.3">
<path d="M0.689666 43.138L1.11909 43.0215L0.904788 36.0821C0.904788 36.0821 -0.0515945 35.8217 0.00218605 37.0253C0.00218605 37.0253 0.00173096 37.9531 0.302264 38.8422L0.165534 40.7786L0.689666 43.138Z" fill="#3C3D3C"/>
</g>
<path d="M25.976 3.51104L27.1435 1.04036L29.8379 0.388277C29.7346 0.388277 31.3648 1.31289 31.3648 1.31289L32.2485 3.09695L31.9841 3.67513L32.4265 5.41013L31.7845 5.51857L31.3768 6.01787L31.3055 6.2125L30.7894 6.34605L31.2036 6.45084L30.5391 7.51747L29.1236 7.31714L28.2876 8.21575L25.0307 6.2125L27.0779 5.18256C27.0779 5.18256 26.8116 5.15496 26.5351 4.86676C26.3089 4.63135 26.076 4.2218 25.976 3.51104Z" fill="#3C3D3C"/>
<path d="M15.9579 20.547L12.1294 29.7175L9.1776 30.5756L2.97998 36.0821L3.14944 38.9681L14.2259 32.1214L22.4463 23.9054L15.9579 20.547Z" fill="#3C3D3C"/>
<path d="M23.7515 6.21259L19.8839 10.6376L16.6754 18.0762L23.3365 19.5094L29.9975 13.0931L29.9244 9.54119L25.8427 6.21259H23.7515Z" fill="#3C3D3C"/>
<path d="M36.2243 10.8869L39.8096 6.21259L41.2073 6.70227L37.6524 13.9437L29.6916 13.1721L28.3807 9.21142L36.2243 10.8869Z" fill="#3C3D3C"/>
<path d="M7.35906 11.4804L6.99445 10.0263L16.4137 8.33461L23.7515 6.21259L21.9133 10.5307L7.35906 11.4804Z" fill="#3C3D3C"/>
<path d="M39.8095 6.21259L39.181 5.17187L39.9653 2.49544L40.2957 2.62899L40.5027 3.5447L42.1416 1.88333L42.9999 3.28935L41.2073 6.70227L39.8095 6.21259Z" fill="#3C3D3C"/>
<path d="M7.35899 11.4804L6.99437 10.0263L4.80669 10.0559L1.23657 11.4804L2.10636 12.1814L4.80669 11.9768L4.34718 12.4004L4.52949 12.6896L5.64612 12.4338L7.35899 11.4804Z" fill="#3C3D3C"/>
<path d="M30.7244 0L26.9798 0.299243L24.9501 2.87383L26.2828 5.58258L27.9825 4.82518L26.7335 4.34591L29.0672 2.30998L31.9841 3.67513L32.768 1.96123L30.7244 0Z" fill="#3C3D3C"/>
<path d="M31.8889 3.11351L30.0746 1.40308L30.1074 1.30461L31.8683 2.84703L32.3818 2.80581L32.2003 3.20272L31.8889 3.11351Z" fill="#3C3D3C"/>
<path d="M30.1074 1.30461L28.2902 1.80543L30.1074 1.39569V1.30461Z" fill="#3C3D3C"/>
<g opacity="0.3">
<path d="M22.4463 23.9054L14.5714 23.8682L19.4785 25.1979L14.226 32.1214L20.8609 25.4925L20.859 25.492L22.4463 23.9054Z" fill="#3C3D3C"/>
</g>
<path d="M14.5793 20.1266L14.5713 23.8682C14.5713 23.8682 30.1776 24.5588 30.269 24.5436L29.7788 26.6314L32.3718 34.4629L34.8152 35.0731L33.7827 21.8686L17.4413 16.8763L14.5793 20.1266Z" fill="#3C3D3C"/>
<path d="M34.8153 35.0732L32.5295 34.5013L32.3719 34.4629L31.067 36.7221C31.067 36.7221 30.3326 37.6549 33.5402 38.4397L35.3127 39.5802L37.521 40.2473L38.2213 39.4797L34.8153 35.0732Z" fill="#3C3D3C"/>
<path d="M32.372 34.463L33.5724 35.7297L34.8153 35.0732L35.0543 35.3825L33.5462 35.9511L32.3099 34.5704L32.372 34.463Z" fill="#3C3D3C"/>
<g opacity="0.3">
<path d="M31.2529 36.4002L37.7777 39.966L37.5211 40.2474L35.3127 39.5802L33.5402 38.4398C33.5402 38.4398 30.666 37.86 31.0289 36.792L31.2529 36.4002Z" fill="#3C3D3C"/>
</g>
<g opacity="0.3">
<path d="M30.2691 24.5436L31.4804 24.361L30.7167 26.8103L33.5724 35.7297L32.372 34.463L29.7789 26.6315L30.2691 24.5436Z" fill="#3C3D3C"/>
</g>
<g opacity="0.3">
<path d="M29.8952 13.1918L30.5839 11.9553L37.6525 13.9437L29.8952 13.1918Z" fill="#3C3D3C"/>
</g>
<g opacity="0.3">
<path d="M28.5434 14.4938L20.5978 17.8341L24.0154 18.8554L28.5434 14.4938Z" fill="#3C3D3C"/>
</g>
<g opacity="0.3">
<path d="M21.2852 9.69976C21.2852 9.69976 16.4219 10.8653 16.3307 10.895L19.8725 10.6639L17.8998 15.2375L21.2852 9.69976Z" fill="#3C3D3C"/>
</g>
<path d="M2.44828 37.8418L3.17359 38.9534L3.05472 39.2603L2.29633 37.8566L2.97998 36.0821" fill="#3C3D3C"/>
</svg>
