<svg class="animated" id="freepik_stories-setup" xmlns="http://www.w3.org/2000/svg" xmlns:xlink="http://www.w3.org/1999/xlink" viewBox="0 0 500 500" version="1.1" xmlns:svgjs="http://svgjs.com/svgjs"><style>svg#freepik_stories-setup:not(.animated) .animable {opacity: 0;}svg#freepik_stories-setup.animated #eltx19x98o5ca {animation: ;animation-delay: ;}svg#freepik_stories-setup.animated #el3eewi88aye7 {animation: ;animation-delay: ;}svg#freepik_stories-setup.animated #elkx1tmhcg1mk {animation: ;animation-delay: ;}svg#freepik_stories-setup.animated #elko8rwnoz3mp {animation: ;animation-delay: ;}svg#freepik_stories-setup.animated #ellsanclwgn2h {animation: ;animation-delay: ;}svg#freepik_stories-setup.animated #elyjpfcvtuptg {animation: ;animation-delay: ;}svg#freepik_stories-setup.animated #elqu8jc8o8qo {animation: ;animation-delay: ;}svg#freepik_stories-setup.animated #elfbhtkeosibs {animation: ;animation-delay: ;}svg#freepik_stories-setup.animated #elwru41okfzld {animation: ;animation-delay: ;}svg#freepik_stories-setup.animated #elkdpwbc3r5cj {animation: ;animation-delay: ;}svg#freepik_stories-setup.animated #el9115cq7n1ol {animation: ;animation-delay: ;}svg#freepik_stories-setup.animated #elogpo272fdfq {animation: ;animation-delay: ;}svg#freepik_stories-setup.animated #elcn9omc0scpg {animation: ;animation-delay: ;}svg#freepik_stories-setup.animated #el3d89druj3p2 {animation: ;animation-delay: ;}svg#freepik_stories-setup.animated #eliotvnima8tm {animation: ;animation-delay: ;}svg#freepik_stories-setup.animated #ely5l1zud0e5j {animation: ;animation-delay: ;}svg#freepik_stories-setup.animated #elm5qonxy3qdp {animation: ;animation-delay: ;}svg#freepik_stories-setup.animated #eluu6zxyr10q {animation: ;animation-delay: ;}svg#freepik_stories-setup.animated #el446f2g489ar {animation: ;animation-delay: ;}svg#freepik_stories-setup.animated #elfgqrcb14g7 {animation: ;animation-delay: ;}svg#freepik_stories-setup.animated #el17avl8htk3i {animation: ;animation-delay: ;}svg#freepik_stories-setup.animated #elbrmfnxpz8yb {animation: ;animation-delay: ;}svg#freepik_stories-setup.animated #el5lsc97hdtxj {animation: ;animation-delay: ;}svg#freepik_stories-setup.animated #elxu901yk6tul {animation: ;animation-delay: ;}svg#freepik_stories-setup.animated #el619qzlswuzx {animation: ;animation-delay: ;}svg#freepik_stories-setup.animated #el2m26nbxddhw {animation: ;animation-delay: ;}svg#freepik_stories-setup.animated #elwa72zm8fs3m {animation: ;animation-delay: ;}svg#freepik_stories-setup.animated #elah8ts0dpb1 {animation: ;animation-delay: ;}svg#freepik_stories-setup.animated #ele3r6rbrty {animation: ;animation-delay: ;}svg#freepik_stories-setup.animated #freepik--Window--inject-1--inject-9 {animation: 1.5s Infinite  linear wind;animation-delay: 1.5s;}            @keyframes wind {                0% {                    transform: rotate( 0deg );                }                25% {                    transform: rotate( 1deg );                }                75% {                    transform: rotate( -1deg );                }            }        </style><!--Setup--><g id="freepik--background-simple--inject-1--inject-9" class="animable" style="transform-origin: 255.52px 225.13px;"><path d="M77,100s-21,12-24,42,30,72,35,110-35,47-19,95,100,59,145,40,66-67,133-67,115-31,111-100-19-90-73-130S143,32,77,100Z" style="fill: rgb(9, 137, 255); transform-origin: 255.52px 225.13px;" id="el70mqp5i3qio" class="animable"></path><g id="el360cr9xtugf"><path d="M77,100s-21,12-24,42,30,72,35,110-35,47-19,95,100,59,145,40,66-67,133-67,115-31,111-100-19-90-73-130S143,32,77,100Z" style="fill: rgb(255, 255, 255); opacity: 0.7; transform-origin: 255.52px 225.13px;" class="animable"></path></g></g><g id="freepik--Window--inject-1--inject-9" class="animable" style="transform-origin: 247.44px 197.83px;"><rect x="82.5" y="78.52" width="329.88" height="238.62" rx="9.78" style="fill: rgb(9, 137, 255); stroke: rgb(46, 53, 58); stroke-miterlimit: 10; stroke-width: 1.50103px; transform-origin: 247.44px 197.83px;" id="eltx19x98o5ca" class="animable"></rect><rect x="88.67" y="101.44" width="317.53" height="201.07" style="fill: rgb(255, 255, 255); stroke: rgb(46, 53, 58); stroke-miterlimit: 10; stroke-width: 1.50103px; transform-origin: 247.435px 201.975px;" id="el3eewi88aye7" class="animable"></rect><line x1="105.28" y1="259.96" x2="199.75" y2="259.96" style="fill: none; stroke: rgb(46, 53, 58); stroke-linecap: round; stroke-linejoin: round; transform-origin: 152.515px 259.96px;" id="elkx1tmhcg1mk" class="animable"></line><line x1="120.92" y1="269.34" x2="199.75" y2="269.34" style="fill: none; stroke: rgb(46, 53, 58); stroke-linecap: round; stroke-linejoin: round; transform-origin: 160.335px 269.34px;" id="elko8rwnoz3mp" class="animable"></line><line x1="105.28" y1="269.34" x2="112.78" y2="269.34" style="fill: none; stroke: rgb(46, 53, 58); stroke-linecap: round; stroke-linejoin: round; transform-origin: 109.03px 269.34px;" id="ellsanclwgn2h" class="animable"></line><line x1="105.28" y1="278.72" x2="199.75" y2="278.72" style="fill: none; stroke: rgb(46, 53, 58); stroke-linecap: round; stroke-linejoin: round; transform-origin: 152.515px 278.72px;" id="elyjpfcvtuptg" class="animable"></line><line x1="192.86" y1="288.11" x2="199.75" y2="288.11" style="fill: none; stroke: rgb(46, 53, 58); stroke-linecap: round; stroke-linejoin: round; transform-origin: 196.305px 288.11px;" id="elqu8jc8o8qo" class="animable"></line><line x1="105.28" y1="288.11" x2="184.73" y2="288.11" style="fill: none; stroke: rgb(46, 53, 58); stroke-linecap: round; stroke-linejoin: round; transform-origin: 145.005px 288.11px;" id="elfbhtkeosibs" class="animable"></line><rect x="102.22" y="117.88" width="228.33" height="73.43" rx="5.69" style="fill: rgb(46, 53, 58); transform-origin: 216.385px 154.595px;" id="elwru41okfzld" class="animable"></rect><path d="M324.87,118.38a5.18,5.18,0,0,1,5.18,5.19v62.05a5.18,5.18,0,0,1-5.18,5.19h-217a5.19,5.19,0,0,1-5.19-5.19V123.57a5.19,5.19,0,0,1,5.19-5.19h217m0-1h-217a6.2,6.2,0,0,0-6.19,6.19v62.05a6.2,6.2,0,0,0,6.19,6.19h217a6.19,6.19,0,0,0,6.18-6.19V123.57a6.19,6.19,0,0,0-6.18-6.19Z" style="fill: rgb(46, 53, 58); transform-origin: 216.365px 154.595px;" id="elkdpwbc3r5cj" class="animable"></path><path d="M284.42,118.38a12.08,12.08,0,0,1-17.45,0h-5.22l.14.24L260,120.54a1.89,1.89,0,0,0,0,2.66l2.49,2.49a1.87,1.87,0,0,0,2.66,0l1.92-1.92a16,16,0,0,0,5,2.08v2.72a1.88,1.88,0,0,0,1.88,1.88h3.52a1.88,1.88,0,0,0,1.88-1.88v-2.72a16,16,0,0,0,5-2.08l1.92,1.92a1.87,1.87,0,0,0,2.66,0l2.49-2.49a1.89,1.89,0,0,0,0-2.66l-1.92-1.92.14-.24Z" style="fill: rgb(9, 137, 255); transform-origin: 275.71px 124.415px;" id="el9115cq7n1ol" class="animable"></path><path d="M195.36,189.88h-2.72a16,16,0,0,0-2.08-5l1.92-1.92a1.87,1.87,0,0,0,0-2.66L190,177.79a1.88,1.88,0,0,0-2.67,0l-1.92,1.92a16.06,16.06,0,0,0-5-2.08v-2.72a1.89,1.89,0,0,0-1.89-1.88H175a1.89,1.89,0,0,0-1.89,1.88v2.72a16.06,16.06,0,0,0-5,2.08l-1.92-1.92a1.87,1.87,0,0,0-2.66,0L161,180.28a1.87,1.87,0,0,0,0,2.66l1.92,1.92a16,16,0,0,0-2.08,5h-2.72a1.85,1.85,0,0,0-1.61.93h8.39a12.13,12.13,0,0,1,23.65,0H197A1.85,1.85,0,0,0,195.36,189.88Z" style="fill: rgb(9, 137, 255); transform-origin: 176.755px 181.91px;" id="elogpo272fdfq" class="animable"></path><path d="M105.51,168.27H109a1.89,1.89,0,0,0,1.89-1.89v-2.71a16.06,16.06,0,0,0,5-2.08l1.92,1.92a1.87,1.87,0,0,0,2.66,0L123,161a1.87,1.87,0,0,0,0-2.66l-1.92-1.92a16,16,0,0,0,2.08-5h2.72a1.88,1.88,0,0,0,1.88-1.88V146a1.88,1.88,0,0,0-1.88-1.88h-2.72a16.21,16.21,0,0,0-2.08-5L123,137.2a1.87,1.87,0,0,0,0-2.66l-2.49-2.49a1.89,1.89,0,0,0-2.66,0L115.93,134a16.28,16.28,0,0,0-5-2.07v-2.72A1.89,1.89,0,0,0,109,127.3h-3.52a1.88,1.88,0,0,0-1.88,1.88v2.72c-.31.07-.61.16-.91.25v4.39a11.64,11.64,0,0,1,3.32-.83A12.14,12.14,0,1,1,102.72,159v4.4c.3.09.6.18.91.25v2.71A1.89,1.89,0,0,0,105.51,168.27Z" style="fill: rgb(9, 137, 255); transform-origin: 115.225px 147.785px;" id="elcn9omc0scpg" class="animable"></path><rect x="188.1" y="84.73" width="157.76" height="9.66" style="fill: rgb(255, 255, 255); stroke: rgb(46, 53, 58); stroke-miterlimit: 10; stroke-width: 1.50103px; transform-origin: 266.98px 89.56px;" id="el3d89druj3p2" class="animable"></rect><polyline points="96.31 83.19 91.76 87.57 96.48 92.63" style="fill: none; stroke: rgb(46, 53, 58); stroke-linecap: round; stroke-linejoin: round; stroke-width: 1.50103px; transform-origin: 94.12px 87.91px;" id="eliotvnima8tm" class="animable"></polyline><line x1="91.76" y1="87.57" x2="101.87" y2="87.57" style="fill: none; stroke: rgb(46, 53, 58); stroke-linecap: round; stroke-linejoin: round; stroke-width: 1.50103px; transform-origin: 96.815px 87.57px;" id="ely5l1zud0e5j" class="animable"></line><polyline points="122.1 83.19 126.66 87.57 121.93 92.63" style="fill: none; stroke: rgb(46, 53, 58); stroke-linecap: round; stroke-linejoin: round; stroke-width: 1.50103px; transform-origin: 124.295px 87.91px;" id="elm5qonxy3qdp" class="animable"></polyline><line x1="126.65" y1="87.57" x2="116.54" y2="87.57" style="fill: none; stroke: rgb(46, 53, 58); stroke-linecap: round; stroke-linejoin: round; stroke-width: 1.50103px; transform-origin: 121.595px 87.57px;" id="eluu6zxyr10q" class="animable"></line><path d="M148.39,87a5,5,0,0,0-4.64-3.62,4.55,4.55,0,1,0,2.88,8.07" style="fill: none; stroke: rgb(46, 53, 58); stroke-linecap: round; stroke-linejoin: round; stroke-width: 1.50103px; transform-origin: 143.793px 87.93px;" id="el446f2g489ar" class="animable"></path><polyline points="145.32 87.49 148.86 87.49 148.86 83.28" style="fill: none; stroke: rgb(46, 53, 58); stroke-linecap: round; stroke-linejoin: round; stroke-width: 1.50103px; transform-origin: 147.09px 85.385px;" id="elfgqrcb14g7" class="animable"></polyline><polygon points="172.5 86 168.3 82.6 164.3 86 164.3 93.4 172.5 93.4 172.5 86" style="fill: none; stroke: rgb(46, 53, 58); stroke-linecap: round; stroke-linejoin: round; stroke-width: 1.50103px; transform-origin: 168.4px 88px;" id="el17avl8htk3i" class="animable"></polygon><rect x="166.7" y="88" width="3.2" height="5.13" style="fill: rgb(46, 53, 58); transform-origin: 168.3px 90.565px;" id="elbrmfnxpz8yb" class="animable"></rect><line x1="164.3" y1="86" x2="161.9" y2="88.2" style="fill: none; stroke: rgb(46, 53, 58); stroke-linecap: round; stroke-linejoin: round; stroke-width: 1.50103px; transform-origin: 163.1px 87.1px;" id="el5lsc97hdtxj" class="animable"></line><line x1="172.5" y1="86" x2="174.76" y2="88.01" style="fill: none; stroke: rgb(46, 53, 58); stroke-linecap: round; stroke-linejoin: round; stroke-width: 1.50103px; transform-origin: 173.63px 87.005px;" id="elxu901yk6tul" class="animable"></line><line x1="389.48" y1="86.5" x2="402.13" y2="86.5" style="fill: none; stroke: rgb(46, 53, 58); stroke-linecap: round; stroke-linejoin: round; stroke-width: 1.50103px; transform-origin: 395.805px 86.5px;" id="el619qzlswuzx" class="animable"></line><line x1="389.48" y1="89.35" x2="402.13" y2="89.35" style="fill: none; stroke: rgb(46, 53, 58); stroke-linecap: round; stroke-linejoin: round; stroke-width: 1.50103px; transform-origin: 395.805px 89.35px;" id="el2m26nbxddhw" class="animable"></line><line x1="389.48" y1="92.21" x2="402.13" y2="92.21" style="fill: none; stroke: rgb(46, 53, 58); stroke-linecap: round; stroke-linejoin: round; stroke-width: 1.50103px; transform-origin: 395.805px 92.21px;" id="elwa72zm8fs3m" class="animable"></line><line x1="389.48" y1="95.06" x2="402.13" y2="95.06" style="fill: none; stroke: rgb(46, 53, 58); stroke-linecap: round; stroke-linejoin: round; stroke-width: 1.50103px; transform-origin: 395.805px 95.06px;" id="elah8ts0dpb1" class="animable"></line><path d="M412.38,143.81h-206a7.61,7.61,0,0,0-7.61,7.61v57.21a7.61,7.61,0,0,0,7.61,7.61h206Z" style="fill: rgb(9, 137, 255); mix-blend-mode: multiply; transform-origin: 305.575px 180.025px;" id="ele3r6rbrty" class="animable"></path></g><g id="freepik--Plants--inject-1--inject-9" class="animable" style="transform-origin: 379.021px 337.545px;"><path d="M399.68,287.84c-.35-13,.66-35.29-10.78-44.45-10-8-17.86,2.87-20.68,11.67-6.84,21.37-3.62,44.95-3.61,67,0,.33,0,.67,0,1-.54,16.22-2.49,33.79-.72,50,0,0-1.74-16.22-14.49-9.27s6.38,43.47,6.38,43.47-15.07-11-22-1.74,8.69,19.7,8.69,19.7-14.49-4.05-14.49,0,4.64,7.54,18,9.27h71.86s11.59-6.37,9.27-13.32-14.49-2.9-14.49-2.9,18.55-22.6,17.39-32.46S405,387.51,405,387.51s18.54-46.94,15.07-67.8c-2.74-16.43-15.5-5.19-22.44,1.13A189.76,189.76,0,0,0,399.68,287.84Z" style="fill: rgb(9, 137, 255); transform-origin: 379.021px 337.545px;" id="el8tcb2w9riy3" class="animable"></path><g id="elk4qpxykgseg"><path d="M399.68,287.84c-.35-13,.66-35.29-10.78-44.45-10-8-17.86,2.87-20.68,11.67-6.84,21.37-3.62,44.95-3.61,67,0,.33,0,.67,0,1-.54,16.22-2.49,33.79-.72,50,0,0-1.74-16.22-14.49-9.27s6.38,43.47,6.38,43.47-15.07-11-22-1.74,8.69,19.7,8.69,19.7-14.49-4.05-14.49,0,4.64,7.54,18,9.27h71.86s11.59-6.37,9.27-13.32-14.49-2.9-14.49-2.9,18.55-22.6,17.39-32.46S405,387.51,405,387.51s18.54-46.94,15.07-67.8c-2.74-16.43-15.5-5.19-22.44,1.13A189.76,189.76,0,0,0,399.68,287.84Z" style="fill: rgb(255, 255, 255); opacity: 0.5; transform-origin: 379.021px 337.545px;" class="animable"></path></g><line x1="376.63" y1="433.87" x2="381.85" y2="274.51" style="fill: none; stroke: rgb(255, 255, 255); stroke-linecap: round; stroke-linejoin: round; stroke-width: 1.72695px; transform-origin: 379.24px 354.19px;" id="el4b499zs1l7x" class="animable"></line><line x1="379.53" y1="367.23" x2="406.77" y2="341.73" style="fill: none; stroke: rgb(255, 255, 255); stroke-linecap: round; stroke-linejoin: round; stroke-width: 1.72695px; transform-origin: 393.15px 354.48px;" id="elpjs9pczwro" class="animable"></line><line x1="392.28" y1="355.64" x2="398.07" y2="339.41" style="fill: none; stroke: rgb(255, 255, 255); stroke-linecap: round; stroke-linejoin: round; stroke-width: 1.72695px; transform-origin: 395.175px 347.525px;" id="elrsqforxzpme" class="animable"></line><line x1="356.93" y1="386.93" x2="377.79" y2="409.53" style="fill: none; stroke: rgb(255, 255, 255); stroke-linecap: round; stroke-linejoin: round; stroke-width: 1.72695px; transform-origin: 367.36px 398.23px;" id="el0vrc4698u55" class="animable"></line><line x1="412.56" y1="399.68" x2="377.79" y2="417.65" style="fill: none; stroke: rgb(255, 255, 255); stroke-linecap: round; stroke-linejoin: round; stroke-width: 1.72695px; transform-origin: 395.175px 408.665px;" id="eliyoud0kkjze" class="animable"></line><line x1="394.02" y1="410.11" x2="406.77" y2="409.53" style="fill: none; stroke: rgb(255, 255, 255); stroke-linecap: round; stroke-linejoin: round; stroke-width: 1.72695px; transform-origin: 400.395px 409.82px;" id="eldzlypw61fd9" class="animable"></line></g><g id="freepik--Character--inject-1--inject-9" class="animable" style="transform-origin: 265.68px 285.22px;"><ellipse cx="265.68" cy="439.16" rx="175.21" ry="8.97" style="fill: rgb(9, 137, 255); transform-origin: 265.68px 439.16px;" id="elul8srmbzya" class="animable"></ellipse><g id="elua95qp0i9nc"><ellipse cx="265.68" cy="439.16" rx="175.21" ry="8.97" style="fill: rgb(255, 255, 255); opacity: 0.3; transform-origin: 265.68px 439.16px;" class="animable"></ellipse></g><path d="M271.12,433a5.15,5.15,0,0,0-2.37.61c-1.25.66-6.65,2.14-10.13,3.37-5.43,1.93-9.67.89-9.23,2.31s8.91,4.27,13.81,4.34,7.26-1.15,9.6-1.1.62,1.18,4.52,1.62,5.17.45,6.53-1.68,2.13-2.68,1.7-5.38V437a5,5,0,0,0-5-4.08Z" style="fill: rgb(46, 53, 58); transform-origin: 267.514px 438.652px;" id="el1hdgf636m88" class="animable"></path><path d="M301.47,430.4a3.59,3.59,0,0,0-2.05.58c-1.07.67-5.72,2.08-8.71,3.29-4.67,1.9-8.39.63-8,2.17s5.43,3.64,9.7,3.88a34.79,34.79,0,0,0,6.92-.26c4.62-.26,1.68,1.38,3.34,2.05a11,11,0,0,0,3.59.51c4.87.26,5.46.65,6.58-1.6s1.76-2.81,1.29-5.73v-.09c-.43-2.59-2.36-4.5-4.48-4.56Z" style="fill: rgb(46, 53, 58); transform-origin: 298.484px 436.61px;" id="el24wmdpc6gf6" class="animable"></path><path d="M257.88,278.1s.84,29.4.84,39.27,2.52,54.48,5.88,70.65,5.25,39.27,5.25,41.79-.84,3.15.84,4.83,8,4.83,10.3,3.78,3.57-5,3.57-5,0-21.84.63-36.12-.42-33-.42-33,8.19,37.81,10.5,45.37,4.2,21.27,4.62,24,2.26,2.82,4.61,2.82c2.82,0,6.31-.36,7.57-2.46s-1.47-24.15-1.47-33-6.93-63.51-6.3-77,4.62-36.75,3.36-43.68A77.5,77.5,0,0,1,306.4,268S263.13,263,257.88,278.1Z" style="fill: rgb(46, 53, 58); stroke: rgb(46, 53, 58); stroke-miterlimit: 10; transform-origin: 285.141px 352.918px;" id="elcx160w6nin" class="animable"></path><path d="M260.41,281.4a50.14,50.14,0,0,0,2.72,7.62,8.86,8.86,0,0,0,3.78,4" style="fill: none; stroke: rgb(255, 255, 255); stroke-miterlimit: 10; transform-origin: 263.66px 287.21px;" id="elvxg5ix13urm" class="animable"></path><path d="M274,427.42a49.6,49.6,0,0,1-.17,8.9" style="fill: none; stroke: rgb(255, 255, 255); stroke-miterlimit: 10; transform-origin: 273.977px 431.87px;" id="ellja5biwslcl" class="animable"></path><path d="M267.75,311.89c.59,22.86,1.71,61.75,2.73,71.09,1.14,10.35,2.15,26.19,2.84,35.8" style="fill: none; stroke: rgb(255, 255, 255); stroke-miterlimit: 10; transform-origin: 270.535px 365.335px;" id="elk978znc3ur" class="animable"></path><path d="M266.84,281.72c-.21.63.49,13.18.49,13.18s.1,4.24.27,10.88" style="fill: none; stroke: rgb(255, 255, 255); stroke-miterlimit: 10; transform-origin: 267.2px 293.75px;" id="el6aznfegt1p" class="animable"></path><path d="M208.74,198.86s-.21-5,.84-3.78,1.26,3.57,1.68,5.88c0,0,.63-4.41,1.26-3.15a8.94,8.94,0,0,1,.63,5,13.57,13.57,0,0,0,1.47,6.93C215.46,211,210.21,207.47,208.74,198.86Z" style="fill: rgb(255, 255, 255); stroke: rgb(46, 53, 58); stroke-miterlimit: 10; transform-origin: 211.717px 202.438px;" id="el7mq0of3gwz" class="animable"></path><path d="M366.8,205.44s3-4.06,1.42-3.6-3,2.26-4.68,3.94c0,0,1.94-4,.71-3.32a9,9,0,0,0-3.34,3.83,13.49,13.49,0,0,1-5.09,4.92C354.42,211.79,360.77,211.76,366.8,205.44Z" style="fill: rgb(255, 255, 255); stroke: rgb(46, 53, 58); stroke-linecap: round; stroke-linejoin: round; transform-origin: 362.152px 206.624px;" id="elmctdbpzy39c" class="animable"></path><path d="M370,138.37v-2.53a1.35,1.35,0,0,0-1.35-1.36h-2a11.72,11.72,0,0,0-1.49-3.61l1.38-1.38a1.36,1.36,0,0,0,0-1.92l-1.79-1.79a1.36,1.36,0,0,0-1.92,0l-1.38,1.38a11.54,11.54,0,0,0-3.62-1.49v-2a1.35,1.35,0,0,0-1.35-1.36H354a1.36,1.36,0,0,0-1.35,1.36v2a11.38,11.38,0,0,0-3.61,1.49l-1.39-1.38a1.35,1.35,0,0,0-1.91,0L344,127.57a1.36,1.36,0,0,0,0,1.92l1.38,1.38a11.74,11.74,0,0,0-1.5,3.61h-1.95a1.36,1.36,0,0,0-1.36,1.36v2.53a1.36,1.36,0,0,0,1.36,1.36h1.95a11.74,11.74,0,0,0,1.5,3.61L344,144.72a1.36,1.36,0,0,0,0,1.92l1.79,1.79a1.35,1.35,0,0,0,1.91,0l1.39-1.38a11.64,11.64,0,0,0,3.61,1.5v1.95a1.36,1.36,0,0,0,1.35,1.36h2.54a1.35,1.35,0,0,0,1.35-1.36v-1.95a11.8,11.8,0,0,0,3.62-1.5l1.38,1.38a1.36,1.36,0,0,0,1.92,0l1.79-1.79a1.36,1.36,0,0,0,0-1.92l-1.38-1.38a11.72,11.72,0,0,0,1.49-3.61h2A1.35,1.35,0,0,0,370,138.37Zm-14.16,4.5A5.8,5.8,0,1,1,361,137.7,5.79,5.79,0,0,1,355.86,142.87Z" style="fill: rgb(255, 255, 255); stroke: rgb(46, 53, 58); stroke-linecap: round; stroke-linejoin: round; transform-origin: 355.285px 137.085px;" id="elykzqpppjv0c" class="animable"></path><path d="M248.31,208.46v-2.54a1.35,1.35,0,0,0-1.36-1.35h-2A11.38,11.38,0,0,0,243.5,201l1.38-1.39a1.35,1.35,0,0,0,0-1.91l-1.79-1.8a1.36,1.36,0,0,0-1.92,0l-1.38,1.39a11.74,11.74,0,0,0-3.61-1.5v-2a1.36,1.36,0,0,0-1.36-1.35h-2.53a1.36,1.36,0,0,0-1.36,1.35v2a11.74,11.74,0,0,0-3.61,1.5l-1.38-1.39a1.36,1.36,0,0,0-1.92,0l-1.79,1.8a1.35,1.35,0,0,0,0,1.91l1.38,1.39a11.64,11.64,0,0,0-1.5,3.61h-2a1.35,1.35,0,0,0-1.36,1.35v2.54a1.35,1.35,0,0,0,1.36,1.35h2a11.8,11.8,0,0,0,1.5,3.62l-1.38,1.38a1.36,1.36,0,0,0,0,1.92l1.79,1.79a1.36,1.36,0,0,0,1.92,0l1.38-1.39a11.74,11.74,0,0,0,3.61,1.5v2a1.35,1.35,0,0,0,1.36,1.35h2.53a1.35,1.35,0,0,0,1.36-1.35v-2a11.74,11.74,0,0,0,3.61-1.5l1.38,1.39a1.36,1.36,0,0,0,1.92,0l1.79-1.79a1.36,1.36,0,0,0,0-1.92l-1.38-1.38a11.54,11.54,0,0,0,1.49-3.62h2A1.35,1.35,0,0,0,248.31,208.46Zm-14.14,4.69a6,6,0,1,1,5.34-5.35A6,6,0,0,1,234.17,213.15Z" style="fill: rgb(255, 255, 255); stroke: rgb(46, 53, 58); stroke-linecap: round; stroke-linejoin: round; transform-origin: 233.53px 207.23px;" id="ely0s2tegknt" class="animable"></path><rect x="203.48" y="135.95" width="227.33" height="72.43" rx="7.61" style="fill: rgb(255, 255, 255); stroke: rgb(46, 53, 58); stroke-linecap: round; stroke-linejoin: round; transform-origin: 317.145px 172.165px;" id="elqsi2dvjn71" class="animable"></rect><line x1="423.72" y1="154.99" x2="218.52" y2="154.99" style="fill: none; stroke: rgb(46, 53, 58); stroke-linecap: round; stroke-linejoin: round; transform-origin: 321.12px 154.99px;" id="el9axme53ahrg" class="animable"></line><line x1="423.72" y1="170.86" x2="218.52" y2="170.86" style="fill: none; stroke: rgb(46, 53, 58); stroke-linecap: round; stroke-linejoin: round; transform-origin: 321.12px 170.86px;" id="elaz8a9bcjt7" class="animable"></line><line x1="423.72" y1="186.73" x2="218.52" y2="186.73" style="fill: none; stroke: rgb(46, 53, 58); stroke-linecap: round; stroke-linejoin: round; transform-origin: 321.12px 186.73px;" id="el89ag77hgc8e" class="animable"></line><path d="M224.27,220.69s-2.47-2.11-2.77-3a23,23,0,0,0-1.21-4.12c-.86-1.87-4-3.54-5-5.76s-2.33-6.11-3-6.86-1.66-.41-2,1.69,3.59,7.25,3.84,8-4.11-.55-6.91-2.35-4.52-5.55-6.21-7.93-3.07-.71-3,.66,5.1,9.1,6.07,11.92,4.2,5.85,6,7.39,5.75,2.16,5.75,2.16l2.65,2.64Z" style="fill: rgb(255, 255, 255); stroke: rgb(46, 53, 58); stroke-miterlimit: 10; transform-origin: 211.139px 212.146px;" id="elmion5zzqi" class="animable"></path><path d="M216.72,231.62l-3.57-7.77a9,9,0,0,1,6.09-3.78c4.41-.84,5,0,5,0l2.31,8S219,228.68,216.72,231.62Z" style="fill: rgb(9, 137, 255); stroke: rgb(46, 53, 58); stroke-linecap: round; stroke-linejoin: round; transform-origin: 219.85px 225.658px;" id="eluhpmep1s5cf" class="animable"></path><path d="M251.37,205s-10.71,30.66-12.18,34.65c-.38,1-1.11,2.7-2,4.64-1.87-3.25-6-10.42-7.23-13.46-1.68-4-4-5-7.77-4.62s-7.14,4.41-7.14,7.35c0,5.57,4.93,13,7.11,18,2.34,5.3,3.91,7.28,7.86,11.71,5,5.61,10.67,3.67,14.5-1.79,2.94-4.2,10.43-19.49,10.43-19.49S253.05,209.78,251.37,205Z" style="fill: rgb(9, 137, 255); stroke: rgb(46, 53, 58); stroke-linecap: round; stroke-linejoin: round; transform-origin: 235px 235.821px;" id="el4783xgcixxo" class="animable"></path><path d="M237.18,244.24s-4.14,5.95-4.53,9.1" style="fill: none; stroke: rgb(46, 53, 58); stroke-linecap: round; stroke-linejoin: round; transform-origin: 234.915px 248.79px;" id="eln6vimyfu25g" class="animable"></path><path d="M340.92,216.77s2.93-1.4,3.45-2.17a22.53,22.53,0,0,1,2.23-3.68c1.31-1.58,4.82-2.37,6.35-4.27s3.82-5.3,4.68-5.84,1.71,0,1.52,2.15-5.33,6.08-5.75,6.7,4.85-1.21,8.1-.54,7.12-.79,10-1.3,2.69,1.64,1.71,2.59-10,2.93-12.68,4.26-5,2.37-7.21,3.38a44.81,44.81,0,0,0-4.61,2.62l-3.24,1.87Z" style="fill: rgb(255, 255, 255); stroke: rgb(46, 53, 58); stroke-linecap: round; stroke-linejoin: round; transform-origin: 357.391px 211.578px;" id="el5d4ufn8auwb" class="animable"></path><path d="M348,228.48l3.57-7.77a9,9,0,0,0-6.09-3.78c-4.41-.84-5,0-5,0l-2.31,8S345.73,225.54,348,228.48Z" style="fill: rgb(9, 137, 255); stroke: rgb(46, 53, 58); stroke-miterlimit: 10; transform-origin: 344.87px 222.518px;" id="elxa35yr62wro" class="animable"></path><path d="M342.58,223c-3.78-.42-6.09.63-7.77,4.62-1.28,3-5.35,10.21-7.23,13.46-.9-1.94-1.63-3.6-2-4.64-1.47-4-12.18-34.65-12.18-34.65-1.68,4.83-3.57,37-3.57,37s8,15.28,11,19.49c1.73,2.47,3.1,4.76,6.27,5.23,9.32,1.39,12.11-7.38,15-13.86,1.81-4.09,3.61-8.19,5.29-12.34.82-2,2.38-4.69,2.38-6.92C349.72,227.43,346.36,223.44,342.58,223Z" style="fill: rgb(9, 137, 255); stroke: rgb(46, 53, 58); stroke-linecap: round; stroke-linejoin: round; transform-origin: 329.8px 232.723px;" id="el3l4h3xzve5f" class="animable"></path><path d="M327.58,241.1s4.2,5.94,5,9.09" style="fill: none; stroke: rgb(46, 53, 58); stroke-linecap: round; stroke-linejoin: round; transform-origin: 330.08px 245.645px;" id="el0pbesl8c96ba" class="animable"></path><path d="M268,148.66s-2.94,10.92-2.31,12,2.1.63,1.26,2.73-2.73,6.1-2.31,7.78,2.73,2.94,2.73,2.94,1.05,7.56,2.1,9,6.72.63,6.72.63l.42,5.67,16.81-1-.63-10.08-.84-31.09Z" style="fill: rgb(255, 255, 255); transform-origin: 279px 168.325px;" id="elvz0e9jwyvdq" class="animable"></path><g style="clip-path: url(&quot;#freepik--clip-path--inject-1--inject-9&quot;); transform-origin: 281.245px 177.317px;" id="elw7xt49lop4" class="animable"><g id="el85nypfngqtm"><path d="M276.15,183.74l.42,5.67,16.81-1-.63-10.08-.36-13.08c-2.19,0-4.19.09-4.81.09-1.53,0-4.87-.26-5.64,0s-1.79.51-1.79.51l-3.84,4.1s.25,5.38-1.54,8.2c-1.5,2.36-5.44,3.29-5.66,4.36a4.93,4.93,0,0,0,.32.65c.2.15.42.31.66.47C271.91,184.36,276.15,183.74,276.15,183.74Z" style="fill: rgb(9, 137, 255); opacity: 0.5; mix-blend-mode: multiply; transform-origin: 281.245px 177.317px;" class="animable"></path></g></g><path d="M268,148.66s-2.94,10.92-2.31,12,2.1.63,1.26,2.73-2.73,6.1-2.31,7.78,2.73,2.94,2.73,2.94,1.05,7.56,2.1,9,6.72.63,6.72.63l.42,5.67,16.81-1-.63-10.08-.84-31.09Z" style="fill: none; stroke: rgb(46, 53, 58); stroke-miterlimit: 10; transform-origin: 279px 168.325px;" id="elr710p3pu5o" class="animable"></path><path d="M269.5,163.79c0,.85-.31,1.53-.69,1.53s-.7-.68-.7-1.53.31-1.53.7-1.53S269.5,162.94,269.5,163.79Z" style="fill: rgb(46, 53, 58); transform-origin: 268.805px 163.79px;" id="elmthy9zqlk5r" class="animable"></path><path d="M288.13,140.26c-1,.16-9,0-15.34,1.05s-8.19,1.47-8,4.2-.42,3.78,1.89,4.83a9.44,9.44,0,0,0,3.15,1s-.63,2.94-.84,5,3.57,4.41,3.57,4.41a15.63,15.63,0,0,0,.21,4.21c.42,1,1.47,1.26,2.1.42s1.05-4.84,1.68-3.16,3.15,14.29,4.84,15.76,9.24.63,11.34.21,6.09-9.24,8-14.5,1-14.49-1.68-18.69S290.86,139.84,288.13,140.26Z" style="fill: rgb(255, 255, 255); stroke: rgb(46, 53, 58); stroke-miterlimit: 10; transform-origin: 283.261px 159.491px;" id="elfkzgth90bcm" class="animable"></path><path d="M299.69,146.27c-.75,2-1.52,4.5-3.65,4.66-3.33.26-3.33-4.1-5.64-5.64s1.54,7.69-.25,5.13-6.41-5.13-10.51-5.38,2.3,7.43.77,7.43-4.1-4.87-4.1-6.15S272.46,145,268.1,145s-2.56,2.56-2.56,4.1a1.18,1.18,0,0,0,.18.62,4.78,4.78,0,0,0,1,.58,9.44,9.44,0,0,0,3.15,1s-.63,2.94-.84,5,3.57,4.41,3.57,4.41a15.63,15.63,0,0,0,.21,4.21c.42,1,1.47,1.26,2.1.42s1.05-4.84,1.68-3.16,3.15,14.29,4.84,15.76,9.24.63,11.34.21,6.09-9.24,8-14.5C302.46,159,301.89,150.83,299.69,146.27Z" style="fill: rgb(46, 53, 58); transform-origin: 283.463px 161.886px;" id="ely6bsgcs9ztq" class="animable"></path><path d="M272.58,188.78l-4.62,8.4s11.55-3.36,17.86-3.36a86.36,86.36,0,0,1,13.23,1.26l-2.94-8.19S280.14,185.21,272.58,188.78Z" style="fill: rgb(9, 137, 255); stroke: rgb(46, 53, 58); stroke-miterlimit: 10; transform-origin: 283.505px 191.838px;" id="elv9r8eibj0f" class="animable"></path><path d="M269.64,196.13s-7.56,4-12,6.09a64.91,64.91,0,0,1-6.3,2.73s5.25,66.85,5.25,70.42-.21,3.78,1.05,4.83,7.78,1.53,19.33,1.32,26-2.58,27.09-2.58a5.42,5.42,0,0,0,4.2-2.52c1.26-1.89,5.25-73.15,5.46-74s-13.86-6.93-15.33-7.35S288.55,189,269.64,196.13Z" style="fill: rgb(9, 137, 255); stroke: rgb(46, 53, 58); stroke-miterlimit: 10; transform-origin: 282.531px 237.059px;" id="elhct0kay1lem" class="animable"></path><path d="M295.1,249.65a34.16,34.16,0,0,1-4.23,3.29" style="fill: none; stroke: rgb(46, 53, 58); stroke-linecap: round; stroke-linejoin: round; transform-origin: 292.985px 251.295px;" id="elgih6q6kawpn" class="animable"></path><path d="M310.54,222.26s-2.92,12.89-11.44,23.18" style="fill: none; stroke: rgb(46, 53, 58); stroke-linecap: round; stroke-linejoin: round; transform-origin: 304.82px 233.85px;" id="el5skzq0d02a4" class="animable"></path><path d="M274.77,162.21a53.81,53.81,0,0,1,.51,5.9c0,2.3-1.54,3.58-.51,4.61s1.79.51,2.56-1.28a15.25,15.25,0,0,0,1-6.67C278.1,163,277.84,159.13,274.77,162.21Z" style="fill: rgb(255, 255, 255); stroke: rgb(46, 53, 58); stroke-miterlimit: 10; transform-origin: 276.394px 167.151px;" id="elo0c3f0ue4wk" class="animable"></path><polyline points="286.08 370.44 291.71 312.88 300.47 302.24" style="fill: none; stroke: rgb(255, 255, 255); stroke-miterlimit: 10; transform-origin: 293.275px 336.34px;" id="el94klfouspcp" class="animable"></polyline></g><defs>     <filter id="active" height="200%">         <feMorphology in="SourceAlpha" result="DILATED" operator="dilate" radius="2"></feMorphology>                <feFlood flood-color="#32DFEC" flood-opacity="1" result="PINK"></feFlood>        <feComposite in="PINK" in2="DILATED" operator="in" result="OUTLINE"></feComposite>        <feMerge>            <feMergeNode in="OUTLINE"></feMergeNode>            <feMergeNode in="SourceGraphic"></feMergeNode>        </feMerge>    </filter>    <filter id="hover" height="200%">        <feMorphology in="SourceAlpha" result="DILATED" operator="dilate" radius="2"></feMorphology>                <feFlood flood-color="#ff0000" flood-opacity="0.5" result="PINK"></feFlood>        <feComposite in="PINK" in2="DILATED" operator="in" result="OUTLINE"></feComposite>        <feMerge>            <feMergeNode in="OUTLINE"></feMergeNode>            <feMergeNode in="SourceGraphic"></feMergeNode>        </feMerge>            <feColorMatrix type="matrix" values="0   0   0   0   0                0   1   0   0   0                0   0   0   0   0                0   0   0   1   0 "></feColorMatrix>    </filter></defs><defs><clipPath id="freepik--clip-path--inject-1--inject-9"><path d="M268,148.66s-2.94,10.92-2.31,12,2.1.63,1.26,2.73-2.73,6.1-2.31,7.78,2.73,2.94,2.73,2.94,1.05,7.56,2.1,9,6.72.63,6.72.63l.42,5.67,16.81-1-.63-10.08-.84-31.09Z" style="fill:#fff;stroke:#2e353a;stroke-miterlimit:10"></path></clipPath></defs></svg>